ISO-10303-21;
HEADER;
/* Generated by software containing ST-Developer
 * from STEP Tools, Inc. (www.steptools.com) 
 */

FILE_DESCRIPTION(
/* description */ (''),
/* implementation_level */ '2;1');

FILE_NAME(
/* name */ 'Hippogriff''s Hack Pad - Lid.step',
/* time_stamp */ '2026-03-31T23:57:03+01:00',
/* author */ (''),
/* organization */ (''),
/* preprocessor_version */ 'ST-DEVELOPER v20.1',
/* originating_system */ 'Autodesk Translation Framework v14.24.0.0',
/* authorisation */ '');

FILE_SCHEMA (('AUTOMOTIVE_DESIGN { 1 0 10303 214 3 1 1 }'));
ENDSEC;

DATA;
#10=MECHANICAL_DESIGN_GEOMETRIC_PRESENTATION_REPRESENTATION('',(#13),#786);
#11=SHAPE_REPRESENTATION_RELATIONSHIP('SRR','None',#793,#12);
#12=ADVANCED_BREP_SHAPE_REPRESENTATION('',(#14),#785);
#13=STYLED_ITEM('',(#802),#14);
#14=MANIFOLD_SOLID_BREP('Body7',#486);
#15=FACE_BOUND('',#94,.T.);
#16=FACE_BOUND('',#95,.T.);
#17=FACE_BOUND('',#96,.T.);
#18=FACE_BOUND('',#97,.T.);
#19=FACE_BOUND('',#98,.T.);
#20=FACE_BOUND('',#99,.T.);
#21=FACE_BOUND('',#100,.T.);
#22=FACE_BOUND('',#101,.T.);
#23=FACE_BOUND('',#103,.T.);
#24=FACE_BOUND('',#104,.T.);
#25=FACE_BOUND('',#105,.T.);
#26=FACE_BOUND('',#106,.T.);
#27=FACE_BOUND('',#107,.T.);
#28=FACE_BOUND('',#108,.T.);
#29=FACE_BOUND('',#109,.T.);
#30=FACE_BOUND('',#110,.T.);
#31=PLANE('',#506);
#32=PLANE('',#507);
#33=PLANE('',#508);
#34=PLANE('',#509);
#35=PLANE('',#516);
#36=PLANE('',#517);
#37=PLANE('',#518);
#38=PLANE('',#519);
#39=PLANE('',#520);
#40=PLANE('',#521);
#41=PLANE('',#522);
#42=PLANE('',#523);
#43=PLANE('',#527);
#44=PLANE('',#528);
#45=PLANE('',#529);
#46=PLANE('',#530);
#47=PLANE('',#531);
#48=PLANE('',#532);
#49=FACE_OUTER_BOUND('',#72,.T.);
#50=FACE_OUTER_BOUND('',#73,.T.);
#51=FACE_OUTER_BOUND('',#74,.T.);
#52=FACE_OUTER_BOUND('',#75,.T.);
#53=FACE_OUTER_BOUND('',#76,.T.);
#54=FACE_OUTER_BOUND('',#77,.T.);
#55=FACE_OUTER_BOUND('',#78,.T.);
#56=FACE_OUTER_BOUND('',#79,.T.);
#57=FACE_OUTER_BOUND('',#80,.T.);
#58=FACE_OUTER_BOUND('',#81,.T.);
#59=FACE_OUTER_BOUND('',#82,.T.);
#60=FACE_OUTER_BOUND('',#83,.T.);
#61=FACE_OUTER_BOUND('',#84,.T.);
#62=FACE_OUTER_BOUND('',#85,.T.);
#63=FACE_OUTER_BOUND('',#86,.T.);
#64=FACE_OUTER_BOUND('',#87,.T.);
#65=FACE_OUTER_BOUND('',#88,.T.);
#66=FACE_OUTER_BOUND('',#89,.T.);
#67=FACE_OUTER_BOUND('',#90,.T.);
#68=FACE_OUTER_BOUND('',#91,.T.);
#69=FACE_OUTER_BOUND('',#92,.T.);
#70=FACE_OUTER_BOUND('',#93,.T.);
#71=FACE_OUTER_BOUND('',#102,.T.);
#72=EDGE_LOOP('',(#332,#333,#334,#335));
#73=EDGE_LOOP('',(#336,#337,#338,#339));
#74=EDGE_LOOP('',(#340,#341,#342,#343));
#75=EDGE_LOOP('',(#344,#345,#346,#347));
#76=EDGE_LOOP('',(#348,#349,#350,#351));
#77=EDGE_LOOP('',(#352,#353,#354,#355));
#78=EDGE_LOOP('',(#356,#357,#358,#359));
#79=EDGE_LOOP('',(#360,#361,#362,#363));
#80=EDGE_LOOP('',(#364,#365,#366,#367));
#81=EDGE_LOOP('',(#368,#369,#370,#371));
#82=EDGE_LOOP('',(#372,#373,#374,#375));
#83=EDGE_LOOP('',(#376,#377,#378,#379));
#84=EDGE_LOOP('',(#380,#381,#382,#383));
#85=EDGE_LOOP('',(#384,#385,#386,#387));
#86=EDGE_LOOP('',(#388,#389,#390,#391));
#87=EDGE_LOOP('',(#392,#393,#394,#395));
#88=EDGE_LOOP('',(#396,#397,#398,#399));
#89=EDGE_LOOP('',(#400,#401,#402,#403));
#90=EDGE_LOOP('',(#404,#405,#406,#407));
#91=EDGE_LOOP('',(#408,#409,#410,#411));
#92=EDGE_LOOP('',(#412,#413,#414,#415));
#93=EDGE_LOOP('',(#416,#417,#418,#419));
#94=EDGE_LOOP('',(#420));
#95=EDGE_LOOP('',(#421,#422,#423,#424));
#96=EDGE_LOOP('',(#425,#426,#427,#428));
#97=EDGE_LOOP('',(#429));
#98=EDGE_LOOP('',(#430));
#99=EDGE_LOOP('',(#431,#432,#433,#434));
#100=EDGE_LOOP('',(#435));
#101=EDGE_LOOP('',(#436));
#102=EDGE_LOOP('',(#437,#438,#439,#440));
#103=EDGE_LOOP('',(#441));
#104=EDGE_LOOP('',(#442,#443,#444,#445));
#105=EDGE_LOOP('',(#446,#447,#448,#449));
#106=EDGE_LOOP('',(#450));
#107=EDGE_LOOP('',(#451));
#108=EDGE_LOOP('',(#452,#453,#454,#455));
#109=EDGE_LOOP('',(#456));
#110=EDGE_LOOP('',(#457));
#111=LINE('',#659,#164);
#112=LINE('',#665,#165);
#113=LINE('',#670,#166);
#114=LINE('',#672,#167);
#115=LINE('',#674,#168);
#116=LINE('',#675,#169);
#117=LINE('',#678,#170);
#118=LINE('',#680,#171);
#119=LINE('',#681,#172);
#120=LINE('',#684,#173);
#121=LINE('',#686,#174);
#122=LINE('',#687,#175);
#123=LINE('',#689,#176);
#124=LINE('',#690,#177);
#125=LINE('',#695,#178);
#126=LINE('',#701,#179);
#127=LINE('',#706,#180);
#128=LINE('',#708,#181);
#129=LINE('',#710,#182);
#130=LINE('',#711,#183);
#131=LINE('',#714,#184);
#132=LINE('',#716,#185);
#133=LINE('',#717,#186);
#134=LINE('',#720,#187);
#135=LINE('',#722,#188);
#136=LINE('',#723,#189);
#137=LINE('',#725,#190);
#138=LINE('',#726,#191);
#139=LINE('',#730,#192);
#140=LINE('',#732,#193);
#141=LINE('',#734,#194);
#142=LINE('',#735,#195);
#143=LINE('',#738,#196);
#144=LINE('',#740,#197);
#145=LINE('',#741,#198);
#146=LINE('',#744,#199);
#147=LINE('',#746,#200);
#148=LINE('',#747,#201);
#149=LINE('',#749,#202);
#150=LINE('',#750,#203);
#151=LINE('',#755,#204);
#152=LINE('',#760,#205);
#153=LINE('',#762,#206);
#154=LINE('',#764,#207);
#155=LINE('',#765,#208);
#156=LINE('',#768,#209);
#157=LINE('',#770,#210);
#158=LINE('',#771,#211);
#159=LINE('',#774,#212);
#160=LINE('',#776,#213);
#161=LINE('',#777,#214);
#162=LINE('',#779,#215);
#163=LINE('',#780,#216);
#164=VECTOR('',#539,1.45);
#165=VECTOR('',#546,1.45);
#166=VECTOR('',#551,10.);
#167=VECTOR('',#552,10.);
#168=VECTOR('',#553,10.);
#169=VECTOR('',#554,10.);
#170=VECTOR('',#557,10.);
#171=VECTOR('',#558,10.);
#172=VECTOR('',#559,10.);
#173=VECTOR('',#562,10.);
#174=VECTOR('',#563,10.);
#175=VECTOR('',#564,10.);
#176=VECTOR('',#567,10.);
#177=VECTOR('',#568,10.);
#178=VECTOR('',#573,1.45);
#179=VECTOR('',#580,3.75);
#180=VECTOR('',#585,10.);
#181=VECTOR('',#586,10.);
#182=VECTOR('',#587,10.);
#183=VECTOR('',#588,10.);
#184=VECTOR('',#591,10.);
#185=VECTOR('',#592,10.);
#186=VECTOR('',#593,10.);
#187=VECTOR('',#596,10.);
#188=VECTOR('',#597,10.);
#189=VECTOR('',#598,10.);
#190=VECTOR('',#601,10.);
#191=VECTOR('',#602,10.);
#192=VECTOR('',#605,10.);
#193=VECTOR('',#606,10.);
#194=VECTOR('',#607,10.);
#195=VECTOR('',#608,10.);
#196=VECTOR('',#611,10.);
#197=VECTOR('',#612,10.);
#198=VECTOR('',#613,10.);
#199=VECTOR('',#616,10.);
#200=VECTOR('',#617,10.);
#201=VECTOR('',#618,10.);
#202=VECTOR('',#621,10.);
#203=VECTOR('',#622,10.);
#204=VECTOR('',#627,1.45);
#205=VECTOR('',#632,10.);
#206=VECTOR('',#633,10.);
#207=VECTOR('',#634,10.);
#208=VECTOR('',#635,10.);
#209=VECTOR('',#638,10.);
#210=VECTOR('',#639,10.);
#211=VECTOR('',#640,10.);
#212=VECTOR('',#643,10.);
#213=VECTOR('',#644,10.);
#214=VECTOR('',#645,10.);
#215=VECTOR('',#648,10.);
#216=VECTOR('',#649,10.);
#217=CIRCLE('',#501,1.45);
#218=CIRCLE('',#502,1.45);
#219=CIRCLE('',#504,1.45);
#220=CIRCLE('',#505,1.45);
#221=CIRCLE('',#511,1.45);
#222=CIRCLE('',#512,1.45);
#223=CIRCLE('',#514,3.75);
#224=CIRCLE('',#515,3.75);
#225=CIRCLE('',#525,1.45);
#226=CIRCLE('',#526,1.45);
#227=VERTEX_POINT('',#656);
#228=VERTEX_POINT('',#658);
#229=VERTEX_POINT('',#662);
#230=VERTEX_POINT('',#664);
#231=VERTEX_POINT('',#668);
#232=VERTEX_POINT('',#669);
#233=VERTEX_POINT('',#671);
#234=VERTEX_POINT('',#673);
#235=VERTEX_POINT('',#677);
#236=VERTEX_POINT('',#679);
#237=VERTEX_POINT('',#683);
#238=VERTEX_POINT('',#685);
#239=VERTEX_POINT('',#692);
#240=VERTEX_POINT('',#694);
#241=VERTEX_POINT('',#698);
#242=VERTEX_POINT('',#700);
#243=VERTEX_POINT('',#704);
#244=VERTEX_POINT('',#705);
#245=VERTEX_POINT('',#707);
#246=VERTEX_POINT('',#709);
#247=VERTEX_POINT('',#713);
#248=VERTEX_POINT('',#715);
#249=VERTEX_POINT('',#719);
#250=VERTEX_POINT('',#721);
#251=VERTEX_POINT('',#728);
#252=VERTEX_POINT('',#729);
#253=VERTEX_POINT('',#731);
#254=VERTEX_POINT('',#733);
#255=VERTEX_POINT('',#737);
#256=VERTEX_POINT('',#739);
#257=VERTEX_POINT('',#743);
#258=VERTEX_POINT('',#745);
#259=VERTEX_POINT('',#752);
#260=VERTEX_POINT('',#754);
#261=VERTEX_POINT('',#758);
#262=VERTEX_POINT('',#759);
#263=VERTEX_POINT('',#761);
#264=VERTEX_POINT('',#763);
#265=VERTEX_POINT('',#767);
#266=VERTEX_POINT('',#769);
#267=VERTEX_POINT('',#773);
#268=VERTEX_POINT('',#775);
#269=EDGE_CURVE('',#227,#227,#217,.T.);
#270=EDGE_CURVE('',#227,#228,#111,.T.);
#271=EDGE_CURVE('',#228,#228,#218,.T.);
#272=EDGE_CURVE('',#229,#229,#219,.T.);
#273=EDGE_CURVE('',#229,#230,#112,.T.);
#274=EDGE_CURVE('',#230,#230,#220,.T.);
#275=EDGE_CURVE('',#231,#232,#113,.T.);
#276=EDGE_CURVE('',#232,#233,#114,.T.);
#277=EDGE_CURVE('',#234,#233,#115,.T.);
#278=EDGE_CURVE('',#231,#234,#116,.T.);
#279=EDGE_CURVE('',#235,#231,#117,.T.);
#280=EDGE_CURVE('',#236,#234,#118,.T.);
#281=EDGE_CURVE('',#235,#236,#119,.T.);
#282=EDGE_CURVE('',#237,#235,#120,.T.);
#283=EDGE_CURVE('',#238,#236,#121,.T.);
#284=EDGE_CURVE('',#237,#238,#122,.T.);
#285=EDGE_CURVE('',#232,#237,#123,.T.);
#286=EDGE_CURVE('',#233,#238,#124,.T.);
#287=EDGE_CURVE('',#239,#239,#221,.T.);
#288=EDGE_CURVE('',#239,#240,#125,.T.);
#289=EDGE_CURVE('',#240,#240,#222,.T.);
#290=EDGE_CURVE('',#241,#241,#223,.T.);
#291=EDGE_CURVE('',#241,#242,#126,.T.);
#292=EDGE_CURVE('',#242,#242,#224,.T.);
#293=EDGE_CURVE('',#243,#244,#127,.T.);
#294=EDGE_CURVE('',#244,#245,#128,.T.);
#295=EDGE_CURVE('',#246,#245,#129,.T.);
#296=EDGE_CURVE('',#243,#246,#130,.T.);
#297=EDGE_CURVE('',#247,#243,#131,.T.);
#298=EDGE_CURVE('',#248,#246,#132,.T.);
#299=EDGE_CURVE('',#247,#248,#133,.T.);
#300=EDGE_CURVE('',#249,#247,#134,.T.);
#301=EDGE_CURVE('',#250,#248,#135,.T.);
#302=EDGE_CURVE('',#249,#250,#136,.T.);
#303=EDGE_CURVE('',#244,#249,#137,.T.);
#304=EDGE_CURVE('',#245,#250,#138,.T.);
#305=EDGE_CURVE('',#251,#252,#139,.T.);
#306=EDGE_CURVE('',#252,#253,#140,.T.);
#307=EDGE_CURVE('',#254,#253,#141,.T.);
#308=EDGE_CURVE('',#251,#254,#142,.T.);
#309=EDGE_CURVE('',#255,#251,#143,.T.);
#310=EDGE_CURVE('',#256,#254,#144,.T.);
#311=EDGE_CURVE('',#255,#256,#145,.T.);
#312=EDGE_CURVE('',#257,#255,#146,.T.);
#313=EDGE_CURVE('',#258,#256,#147,.T.);
#314=EDGE_CURVE('',#257,#258,#148,.T.);
#315=EDGE_CURVE('',#252,#257,#149,.T.);
#316=EDGE_CURVE('',#253,#258,#150,.T.);
#317=EDGE_CURVE('',#259,#259,#225,.T.);
#318=EDGE_CURVE('',#259,#260,#151,.T.);
#319=EDGE_CURVE('',#260,#260,#226,.T.);
#320=EDGE_CURVE('',#261,#262,#152,.T.);
#321=EDGE_CURVE('',#261,#263,#153,.T.);
#322=EDGE_CURVE('',#264,#263,#154,.T.);
#323=EDGE_CURVE('',#262,#264,#155,.T.);
#324=EDGE_CURVE('',#262,#265,#156,.T.);
#325=EDGE_CURVE('',#266,#264,#157,.T.);
#326=EDGE_CURVE('',#265,#266,#158,.T.);
#327=EDGE_CURVE('',#265,#267,#159,.T.);
#328=EDGE_CURVE('',#268,#266,#160,.T.);
#329=EDGE_CURVE('',#267,#268,#161,.T.);
#330=EDGE_CURVE('',#267,#261,#162,.T.);
#331=EDGE_CURVE('',#263,#268,#163,.T.);
#332=ORIENTED_EDGE('',*,*,#269,.F.);
#333=ORIENTED_EDGE('',*,*,#270,.T.);
#334=ORIENTED_EDGE('',*,*,#271,.T.);
#335=ORIENTED_EDGE('',*,*,#270,.F.);
#336=ORIENTED_EDGE('',*,*,#272,.F.);
#337=ORIENTED_EDGE('',*,*,#273,.T.);
#338=ORIENTED_EDGE('',*,*,#274,.T.);
#339=ORIENTED_EDGE('',*,*,#273,.F.);
#340=ORIENTED_EDGE('',*,*,#275,.T.);
#341=ORIENTED_EDGE('',*,*,#276,.T.);
#342=ORIENTED_EDGE('',*,*,#277,.F.);
#343=ORIENTED_EDGE('',*,*,#278,.F.);
#344=ORIENTED_EDGE('',*,*,#279,.T.);
#345=ORIENTED_EDGE('',*,*,#278,.T.);
#346=ORIENTED_EDGE('',*,*,#280,.F.);
#347=ORIENTED_EDGE('',*,*,#281,.F.);
#348=ORIENTED_EDGE('',*,*,#282,.T.);
#349=ORIENTED_EDGE('',*,*,#281,.T.);
#350=ORIENTED_EDGE('',*,*,#283,.F.);
#351=ORIENTED_EDGE('',*,*,#284,.F.);
#352=ORIENTED_EDGE('',*,*,#285,.T.);
#353=ORIENTED_EDGE('',*,*,#284,.T.);
#354=ORIENTED_EDGE('',*,*,#286,.F.);
#355=ORIENTED_EDGE('',*,*,#276,.F.);
#356=ORIENTED_EDGE('',*,*,#287,.F.);
#357=ORIENTED_EDGE('',*,*,#288,.T.);
#358=ORIENTED_EDGE('',*,*,#289,.T.);
#359=ORIENTED_EDGE('',*,*,#288,.F.);
#360=ORIENTED_EDGE('',*,*,#290,.F.);
#361=ORIENTED_EDGE('',*,*,#291,.T.);
#362=ORIENTED_EDGE('',*,*,#292,.T.);
#363=ORIENTED_EDGE('',*,*,#291,.F.);
#364=ORIENTED_EDGE('',*,*,#293,.T.);
#365=ORIENTED_EDGE('',*,*,#294,.T.);
#366=ORIENTED_EDGE('',*,*,#295,.F.);
#367=ORIENTED_EDGE('',*,*,#296,.F.);
#368=ORIENTED_EDGE('',*,*,#297,.T.);
#369=ORIENTED_EDGE('',*,*,#296,.T.);
#370=ORIENTED_EDGE('',*,*,#298,.F.);
#371=ORIENTED_EDGE('',*,*,#299,.F.);
#372=ORIENTED_EDGE('',*,*,#300,.T.);
#373=ORIENTED_EDGE('',*,*,#299,.T.);
#374=ORIENTED_EDGE('',*,*,#301,.F.);
#375=ORIENTED_EDGE('',*,*,#302,.F.);
#376=ORIENTED_EDGE('',*,*,#303,.T.);
#377=ORIENTED_EDGE('',*,*,#302,.T.);
#378=ORIENTED_EDGE('',*,*,#304,.F.);
#379=ORIENTED_EDGE('',*,*,#294,.F.);
#380=ORIENTED_EDGE('',*,*,#305,.T.);
#381=ORIENTED_EDGE('',*,*,#306,.T.);
#382=ORIENTED_EDGE('',*,*,#307,.F.);
#383=ORIENTED_EDGE('',*,*,#308,.F.);
#384=ORIENTED_EDGE('',*,*,#309,.T.);
#385=ORIENTED_EDGE('',*,*,#308,.T.);
#386=ORIENTED_EDGE('',*,*,#310,.F.);
#387=ORIENTED_EDGE('',*,*,#311,.F.);
#388=ORIENTED_EDGE('',*,*,#312,.T.);
#389=ORIENTED_EDGE('',*,*,#311,.T.);
#390=ORIENTED_EDGE('',*,*,#313,.F.);
#391=ORIENTED_EDGE('',*,*,#314,.F.);
#392=ORIENTED_EDGE('',*,*,#315,.T.);
#393=ORIENTED_EDGE('',*,*,#314,.T.);
#394=ORIENTED_EDGE('',*,*,#316,.F.);
#395=ORIENTED_EDGE('',*,*,#306,.F.);
#396=ORIENTED_EDGE('',*,*,#317,.F.);
#397=ORIENTED_EDGE('',*,*,#318,.T.);
#398=ORIENTED_EDGE('',*,*,#319,.T.);
#399=ORIENTED_EDGE('',*,*,#318,.F.);
#400=ORIENTED_EDGE('',*,*,#320,.F.);
#401=ORIENTED_EDGE('',*,*,#321,.T.);
#402=ORIENTED_EDGE('',*,*,#322,.F.);
#403=ORIENTED_EDGE('',*,*,#323,.F.);
#404=ORIENTED_EDGE('',*,*,#324,.F.);
#405=ORIENTED_EDGE('',*,*,#323,.T.);
#406=ORIENTED_EDGE('',*,*,#325,.F.);
#407=ORIENTED_EDGE('',*,*,#326,.F.);
#408=ORIENTED_EDGE('',*,*,#327,.F.);
#409=ORIENTED_EDGE('',*,*,#326,.T.);
#410=ORIENTED_EDGE('',*,*,#328,.F.);
#411=ORIENTED_EDGE('',*,*,#329,.F.);
#412=ORIENTED_EDGE('',*,*,#330,.F.);
#413=ORIENTED_EDGE('',*,*,#329,.T.);
#414=ORIENTED_EDGE('',*,*,#331,.F.);
#415=ORIENTED_EDGE('',*,*,#321,.F.);
#416=ORIENTED_EDGE('',*,*,#331,.T.);
#417=ORIENTED_EDGE('',*,*,#328,.T.);
#418=ORIENTED_EDGE('',*,*,#325,.T.);
#419=ORIENTED_EDGE('',*,*,#322,.T.);
#420=ORIENTED_EDGE('',*,*,#317,.T.);
#421=ORIENTED_EDGE('',*,*,#316,.T.);
#422=ORIENTED_EDGE('',*,*,#313,.T.);
#423=ORIENTED_EDGE('',*,*,#310,.T.);
#424=ORIENTED_EDGE('',*,*,#307,.T.);
#425=ORIENTED_EDGE('',*,*,#304,.T.);
#426=ORIENTED_EDGE('',*,*,#301,.T.);
#427=ORIENTED_EDGE('',*,*,#298,.T.);
#428=ORIENTED_EDGE('',*,*,#295,.T.);
#429=ORIENTED_EDGE('',*,*,#290,.T.);
#430=ORIENTED_EDGE('',*,*,#287,.T.);
#431=ORIENTED_EDGE('',*,*,#286,.T.);
#432=ORIENTED_EDGE('',*,*,#283,.T.);
#433=ORIENTED_EDGE('',*,*,#280,.T.);
#434=ORIENTED_EDGE('',*,*,#277,.T.);
#435=ORIENTED_EDGE('',*,*,#272,.T.);
#436=ORIENTED_EDGE('',*,*,#269,.T.);
#437=ORIENTED_EDGE('',*,*,#330,.T.);
#438=ORIENTED_EDGE('',*,*,#320,.T.);
#439=ORIENTED_EDGE('',*,*,#324,.T.);
#440=ORIENTED_EDGE('',*,*,#327,.T.);
#441=ORIENTED_EDGE('',*,*,#319,.F.);
#442=ORIENTED_EDGE('',*,*,#315,.F.);
#443=ORIENTED_EDGE('',*,*,#305,.F.);
#444=ORIENTED_EDGE('',*,*,#309,.F.);
#445=ORIENTED_EDGE('',*,*,#312,.F.);
#446=ORIENTED_EDGE('',*,*,#303,.F.);
#447=ORIENTED_EDGE('',*,*,#293,.F.);
#448=ORIENTED_EDGE('',*,*,#297,.F.);
#449=ORIENTED_EDGE('',*,*,#300,.F.);
#450=ORIENTED_EDGE('',*,*,#292,.F.);
#451=ORIENTED_EDGE('',*,*,#289,.F.);
#452=ORIENTED_EDGE('',*,*,#285,.F.);
#453=ORIENTED_EDGE('',*,*,#275,.F.);
#454=ORIENTED_EDGE('',*,*,#279,.F.);
#455=ORIENTED_EDGE('',*,*,#282,.F.);
#456=ORIENTED_EDGE('',*,*,#274,.F.);
#457=ORIENTED_EDGE('',*,*,#271,.F.);
#458=CYLINDRICAL_SURFACE('',#500,1.45);
#459=CYLINDRICAL_SURFACE('',#503,1.45);
#460=CYLINDRICAL_SURFACE('',#510,1.45);
#461=CYLINDRICAL_SURFACE('',#513,3.75);
#462=CYLINDRICAL_SURFACE('',#524,1.45);
#463=ADVANCED_FACE('',(#49),#458,.F.);
#464=ADVANCED_FACE('',(#50),#459,.F.);
#465=ADVANCED_FACE('',(#51),#31,.T.);
#466=ADVANCED_FACE('',(#52),#32,.T.);
#467=ADVANCED_FACE('',(#53),#33,.T.);
#468=ADVANCED_FACE('',(#54),#34,.T.);
#469=ADVANCED_FACE('',(#55),#460,.F.);
#470=ADVANCED_FACE('',(#56),#461,.F.);
#471=ADVANCED_FACE('',(#57),#35,.T.);
#472=ADVANCED_FACE('',(#58),#36,.T.);
#473=ADVANCED_FACE('',(#59),#37,.T.);
#474=ADVANCED_FACE('',(#60),#38,.T.);
#475=ADVANCED_FACE('',(#61),#39,.T.);
#476=ADVANCED_FACE('',(#62),#40,.T.);
#477=ADVANCED_FACE('',(#63),#41,.T.);
#478=ADVANCED_FACE('',(#64),#42,.T.);
#479=ADVANCED_FACE('',(#65),#462,.F.);
#480=ADVANCED_FACE('',(#66),#43,.T.);
#481=ADVANCED_FACE('',(#67),#44,.T.);
#482=ADVANCED_FACE('',(#68),#45,.T.);
#483=ADVANCED_FACE('',(#69),#46,.T.);
#484=ADVANCED_FACE('',(#70,#15,#16,#17,#18,#19,#20,#21,#22),#47,.T.);
#485=ADVANCED_FACE('',(#71,#23,#24,#25,#26,#27,#28,#29,#30),#48,.F.);
#486=CLOSED_SHELL('',(#463,#464,#465,#466,#467,#468,#469,#470,#471,#472,
#473,#474,#475,#476,#477,#478,#479,#480,#481,#482,#483,#484,#485));
#487=DERIVED_UNIT_ELEMENT(#489,1.);
#488=DERIVED_UNIT_ELEMENT(#788,-3.);
#489=(
MASS_UNIT()
NAMED_UNIT(*)
SI_UNIT(.KILO.,.GRAM.)
);
#490=DERIVED_UNIT((#487,#488));
#491=MEASURE_REPRESENTATION_ITEM('density measure',
POSITIVE_RATIO_MEASURE(7850.),#490);
#492=PROPERTY_DEFINITION_REPRESENTATION(#497,#494);
#493=PROPERTY_DEFINITION_REPRESENTATION(#498,#495);
#494=REPRESENTATION('material name',(#496),#785);
#495=REPRESENTATION('density',(#491),#785);
#496=DESCRIPTIVE_REPRESENTATION_ITEM('Steel','Steel');
#497=PROPERTY_DEFINITION('material property','material name',#795);
#498=PROPERTY_DEFINITION('material property','density of part',#795);
#499=AXIS2_PLACEMENT_3D('',#654,#533,#534);
#500=AXIS2_PLACEMENT_3D('',#655,#535,#536);
#501=AXIS2_PLACEMENT_3D('',#657,#537,#538);
#502=AXIS2_PLACEMENT_3D('',#660,#540,#541);
#503=AXIS2_PLACEMENT_3D('',#661,#542,#543);
#504=AXIS2_PLACEMENT_3D('',#663,#544,#545);
#505=AXIS2_PLACEMENT_3D('',#666,#547,#548);
#506=AXIS2_PLACEMENT_3D('',#667,#549,#550);
#507=AXIS2_PLACEMENT_3D('',#676,#555,#556);
#508=AXIS2_PLACEMENT_3D('',#682,#560,#561);
#509=AXIS2_PLACEMENT_3D('',#688,#565,#566);
#510=AXIS2_PLACEMENT_3D('',#691,#569,#570);
#511=AXIS2_PLACEMENT_3D('',#693,#571,#572);
#512=AXIS2_PLACEMENT_3D('',#696,#574,#575);
#513=AXIS2_PLACEMENT_3D('',#697,#576,#577);
#514=AXIS2_PLACEMENT_3D('',#699,#578,#579);
#515=AXIS2_PLACEMENT_3D('',#702,#581,#582);
#516=AXIS2_PLACEMENT_3D('',#703,#583,#584);
#517=AXIS2_PLACEMENT_3D('',#712,#589,#590);
#518=AXIS2_PLACEMENT_3D('',#718,#594,#595);
#519=AXIS2_PLACEMENT_3D('',#724,#599,#600);
#520=AXIS2_PLACEMENT_3D('',#727,#603,#604);
#521=AXIS2_PLACEMENT_3D('',#736,#609,#610);
#522=AXIS2_PLACEMENT_3D('',#742,#614,#615);
#523=AXIS2_PLACEMENT_3D('',#748,#619,#620);
#524=AXIS2_PLACEMENT_3D('',#751,#623,#624);
#525=AXIS2_PLACEMENT_3D('',#753,#625,#626);
#526=AXIS2_PLACEMENT_3D('',#756,#628,#629);
#527=AXIS2_PLACEMENT_3D('',#757,#630,#631);
#528=AXIS2_PLACEMENT_3D('',#766,#636,#637);
#529=AXIS2_PLACEMENT_3D('',#772,#641,#642);
#530=AXIS2_PLACEMENT_3D('',#778,#646,#647);
#531=AXIS2_PLACEMENT_3D('',#781,#650,#651);
#532=AXIS2_PLACEMENT_3D('',#782,#652,#653);
#533=DIRECTION('axis',(0.,0.,1.));
#534=DIRECTION('refdir',(1.,0.,0.));
#535=DIRECTION('center_axis',(0.,1.,0.));
#536=DIRECTION('ref_axis',(1.,0.,0.));
#537=DIRECTION('center_axis',(0.,-1.,0.));
#538=DIRECTION('ref_axis',(1.,0.,0.));
#539=DIRECTION('',(0.,-1.,0.));
#540=DIRECTION('center_axis',(0.,-1.,0.));
#541=DIRECTION('ref_axis',(1.,0.,0.));
#542=DIRECTION('center_axis',(0.,1.,0.));
#543=DIRECTION('ref_axis',(1.,0.,0.));
#544=DIRECTION('center_axis',(0.,-1.,0.));
#545=DIRECTION('ref_axis',(1.,0.,0.));
#546=DIRECTION('',(0.,-1.,0.));
#547=DIRECTION('center_axis',(0.,-1.,0.));
#548=DIRECTION('ref_axis',(1.,0.,0.));
#549=DIRECTION('center_axis',(3.17206578464333E-16,0.,-1.));
#550=DIRECTION('ref_axis',(-1.,0.,-3.17206578464333E-16));
#551=DIRECTION('',(-1.,0.,-3.17206578464333E-16));
#552=DIRECTION('',(0.,1.,0.));
#553=DIRECTION('',(-1.,0.,-3.17206578464333E-16));
#554=DIRECTION('',(0.,1.,0.));
#555=DIRECTION('center_axis',(-1.,0.,2.53765262771466E-15));
#556=DIRECTION('ref_axis',(2.53765262771466E-15,0.,1.));
#557=DIRECTION('',(2.53765262771466E-15,0.,1.));
#558=DIRECTION('',(2.53765262771466E-15,0.,1.));
#559=DIRECTION('',(0.,1.,0.));
#560=DIRECTION('center_axis',(6.34413156928668E-16,0.,1.));
#561=DIRECTION('ref_axis',(1.,0.,-6.34413156928668E-16));
#562=DIRECTION('',(1.,0.,-6.34413156928668E-16));
#563=DIRECTION('',(1.,0.,-6.34413156928668E-16));
#564=DIRECTION('',(0.,1.,0.));
#565=DIRECTION('center_axis',(1.,0.,0.));
#566=DIRECTION('ref_axis',(0.,0.,-1.));
#567=DIRECTION('',(0.,0.,-1.));
#568=DIRECTION('',(0.,0.,-1.));
#569=DIRECTION('center_axis',(0.,1.,0.));
#570=DIRECTION('ref_axis',(1.,0.,0.));
#571=DIRECTION('center_axis',(0.,-1.,0.));
#572=DIRECTION('ref_axis',(1.,0.,0.));
#573=DIRECTION('',(0.,-1.,0.));
#574=DIRECTION('center_axis',(0.,-1.,0.));
#575=DIRECTION('ref_axis',(1.,0.,0.));
#576=DIRECTION('center_axis',(0.,1.,0.));
#577=DIRECTION('ref_axis',(1.,0.,0.));
#578=DIRECTION('center_axis',(0.,-1.,0.));
#579=DIRECTION('ref_axis',(1.,0.,0.));
#580=DIRECTION('',(0.,-1.,0.));
#581=DIRECTION('center_axis',(0.,-1.,0.));
#582=DIRECTION('ref_axis',(1.,0.,0.));
#583=DIRECTION('center_axis',(0.,0.,-1.));
#584=DIRECTION('ref_axis',(-1.,0.,0.));
#585=DIRECTION('',(-1.,0.,0.));
#586=DIRECTION('',(0.,1.,0.));
#587=DIRECTION('',(-1.,0.,0.));
#588=DIRECTION('',(0.,1.,0.));
#589=DIRECTION('center_axis',(-1.,0.,-2.53765262771467E-15));
#590=DIRECTION('ref_axis',(-2.53765262771467E-15,0.,1.));
#591=DIRECTION('',(-2.53765262771467E-15,0.,1.));
#592=DIRECTION('',(-2.53765262771467E-15,0.,1.));
#593=DIRECTION('',(0.,1.,0.));
#594=DIRECTION('center_axis',(-6.34413156928666E-16,0.,1.));
#595=DIRECTION('ref_axis',(1.,0.,6.34413156928666E-16));
#596=DIRECTION('',(1.,0.,6.34413156928666E-16));
#597=DIRECTION('',(1.,0.,6.34413156928666E-16));
#598=DIRECTION('',(0.,1.,0.));
#599=DIRECTION('center_axis',(1.,0.,0.));
#600=DIRECTION('ref_axis',(0.,0.,-1.));
#601=DIRECTION('',(0.,0.,-1.));
#602=DIRECTION('',(0.,0.,-1.));
#603=DIRECTION('center_axis',(0.,0.,-1.));
#604=DIRECTION('ref_axis',(-1.,0.,0.));
#605=DIRECTION('',(-1.,0.,0.));
#606=DIRECTION('',(0.,1.,0.));
#607=DIRECTION('',(-1.,0.,0.));
#608=DIRECTION('',(0.,1.,0.));
#609=DIRECTION('center_axis',(-1.,0.,0.));
#610=DIRECTION('ref_axis',(0.,0.,1.));
#611=DIRECTION('',(0.,0.,1.));
#612=DIRECTION('',(0.,0.,1.));
#613=DIRECTION('',(0.,1.,0.));
#614=DIRECTION('center_axis',(0.,0.,1.));
#615=DIRECTION('ref_axis',(1.,0.,0.));
#616=DIRECTION('',(1.,0.,0.));
#617=DIRECTION('',(1.,0.,0.));
#618=DIRECTION('',(0.,1.,0.));
#619=DIRECTION('center_axis',(1.,0.,0.));
#620=DIRECTION('ref_axis',(0.,0.,-1.));
#621=DIRECTION('',(0.,0.,-1.));
#622=DIRECTION('',(0.,0.,-1.));
#623=DIRECTION('center_axis',(0.,1.,0.));
#624=DIRECTION('ref_axis',(1.,0.,0.));
#625=DIRECTION('center_axis',(0.,-1.,0.));
#626=DIRECTION('ref_axis',(1.,0.,0.));
#627=DIRECTION('',(0.,-1.,0.));
#628=DIRECTION('center_axis',(0.,-1.,0.));
#629=DIRECTION('ref_axis',(1.,0.,0.));
#630=DIRECTION('center_axis',(-1.,0.,0.));
#631=DIRECTION('ref_axis',(0.,0.,1.));
#632=DIRECTION('',(0.,0.,-1.));
#633=DIRECTION('',(0.,1.,0.));
#634=DIRECTION('',(0.,0.,1.));
#635=DIRECTION('',(0.,1.,0.));
#636=DIRECTION('center_axis',(0.,0.,-1.));
#637=DIRECTION('ref_axis',(-1.,0.,0.));
#638=DIRECTION('',(1.,0.,0.));
#639=DIRECTION('',(-1.,0.,0.));
#640=DIRECTION('',(0.,1.,0.));
#641=DIRECTION('center_axis',(1.,0.,0.));
#642=DIRECTION('ref_axis',(0.,0.,-1.));
#643=DIRECTION('',(0.,0.,1.));
#644=DIRECTION('',(0.,0.,-1.));
#645=DIRECTION('',(0.,1.,0.));
#646=DIRECTION('center_axis',(0.,0.,1.));
#647=DIRECTION('ref_axis',(1.,0.,0.));
#648=DIRECTION('',(-1.,0.,0.));
#649=DIRECTION('',(1.,0.,0.));
#650=DIRECTION('center_axis',(0.,1.,0.));
#651=DIRECTION('ref_axis',(1.,0.,0.));
#652=DIRECTION('center_axis',(0.,1.,0.));
#653=DIRECTION('ref_axis',(1.,0.,0.));
#654=CARTESIAN_POINT('',(0.,0.,0.));
#655=CARTESIAN_POINT('Origin',(234.134959479044,0.,-23.4747627202757));
#656=CARTESIAN_POINT('',(232.684959479044,3.,-23.4747627202757));
#657=CARTESIAN_POINT('Origin',(234.134959479044,3.,-23.4747627202757));
#658=CARTESIAN_POINT('',(232.684959479044,0.,-23.4747627202757));
#659=CARTESIAN_POINT('',(232.684959479044,0.,-23.4747627202757));
#660=CARTESIAN_POINT('Origin',(234.134959479044,0.,-23.4747627202757));
#661=CARTESIAN_POINT('Origin',(129.134957914422,0.,-23.4747627202757));
#662=CARTESIAN_POINT('',(127.684957914422,3.,-23.4747627202757));
#663=CARTESIAN_POINT('Origin',(129.134957914422,3.,-23.4747627202757));
#664=CARTESIAN_POINT('',(127.684957914422,0.,-23.4747627202757));
#665=CARTESIAN_POINT('',(127.684957914422,0.,-23.4747627202757));
#666=CARTESIAN_POINT('Origin',(129.134957914422,0.,-23.4747627202757));
#667=CARTESIAN_POINT('Origin',(184.778004975003,0.,3.24405916818101));
#668=CARTESIAN_POINT('',(184.778004975003,0.,3.24405916818101));
#669=CARTESIAN_POINT('',(170.778004975003,0.,3.24405916818101));
#670=CARTESIAN_POINT('',(170.778004975003,0.,3.24405916818101));
#671=CARTESIAN_POINT('',(170.778004975003,3.,3.24405916818101));
#672=CARTESIAN_POINT('',(170.778004975003,0.,3.24405916818101));
#673=CARTESIAN_POINT('',(184.778004975003,3.,3.24405916818101));
#674=CARTESIAN_POINT('',(170.778004975003,3.,3.24405916818101));
#675=CARTESIAN_POINT('',(184.778004975003,0.,3.24405916818101));
#676=CARTESIAN_POINT('Origin',(184.778004975003,0.,-10.7559408318189));
#677=CARTESIAN_POINT('',(184.778004975003,0.,-10.7559408318189));
#678=CARTESIAN_POINT('',(184.778004975003,0.,3.24405916818101));
#679=CARTESIAN_POINT('',(184.778004975003,3.,-10.7559408318189));
#680=CARTESIAN_POINT('',(184.778004975003,3.,3.24405916818101));
#681=CARTESIAN_POINT('',(184.778004975003,0.,-10.7559408318189));
#682=CARTESIAN_POINT('Origin',(170.778004975003,0.,-10.7559408318189));
#683=CARTESIAN_POINT('',(170.778004975003,0.,-10.7559408318189));
#684=CARTESIAN_POINT('',(184.778004975003,0.,-10.7559408318189));
#685=CARTESIAN_POINT('',(170.778004975003,3.,-10.7559408318189));
#686=CARTESIAN_POINT('',(184.778004975003,3.,-10.7559408318189));
#687=CARTESIAN_POINT('',(170.778004975003,0.,-10.7559408318189));
#688=CARTESIAN_POINT('Origin',(170.778004975003,0.,3.24405916818101));
#689=CARTESIAN_POINT('',(170.778004975003,0.,-10.7559408318189));
#690=CARTESIAN_POINT('',(170.778004975003,3.,-10.7559408318189));
#691=CARTESIAN_POINT('Origin',(234.134959479044,0.,16.5252378757708));
#692=CARTESIAN_POINT('',(232.684959479044,3.,16.5252378757708));
#693=CARTESIAN_POINT('Origin',(234.134959479044,3.,16.5252378757708));
#694=CARTESIAN_POINT('',(232.684959479044,0.,16.5252378757708));
#695=CARTESIAN_POINT('',(232.684959479044,0.,16.5252378757708));
#696=CARTESIAN_POINT('Origin',(234.134959479044,0.,16.5252378757708));
#697=CARTESIAN_POINT('Origin',(164.289417899856,0.,-3.13238174114625));
#698=CARTESIAN_POINT('',(160.539417899856,3.,-3.13238174114625));
#699=CARTESIAN_POINT('Origin',(164.289417899856,3.,-3.13238174114625));
#700=CARTESIAN_POINT('',(160.539417899856,0.,-3.13238174114625));
#701=CARTESIAN_POINT('',(160.539417899856,0.,-3.13238174114625));
#702=CARTESIAN_POINT('Origin',(164.289417899856,0.,-3.13238174114625));
#703=CARTESIAN_POINT('Origin',(222.878004975003,0.,3.24405916818101));
#704=CARTESIAN_POINT('',(222.878004975003,0.,3.24405916818101));
#705=CARTESIAN_POINT('',(208.878004975003,0.,3.24405916818101));
#706=CARTESIAN_POINT('',(208.878004975003,0.,3.24405916818101));
#707=CARTESIAN_POINT('',(208.878004975003,3.,3.24405916818101));
#708=CARTESIAN_POINT('',(208.878004975003,0.,3.24405916818101));
#709=CARTESIAN_POINT('',(222.878004975003,3.,3.24405916818101));
#710=CARTESIAN_POINT('',(208.878004975003,3.,3.24405916818101));
#711=CARTESIAN_POINT('',(222.878004975003,0.,3.24405916818101));
#712=CARTESIAN_POINT('Origin',(222.878004975003,0.,-10.7559408318189));
#713=CARTESIAN_POINT('',(222.878004975003,0.,-10.7559408318189));
#714=CARTESIAN_POINT('',(222.878004975003,0.,3.24405916818101));
#715=CARTESIAN_POINT('',(222.878004975003,3.,-10.7559408318189));
#716=CARTESIAN_POINT('',(222.878004975003,3.,3.24405916818101));
#717=CARTESIAN_POINT('',(222.878004975003,0.,-10.7559408318189));
#718=CARTESIAN_POINT('Origin',(208.878004975003,0.,-10.7559408318189));
#719=CARTESIAN_POINT('',(208.878004975003,0.,-10.7559408318189));
#720=CARTESIAN_POINT('',(222.878004975003,0.,-10.7559408318189));
#721=CARTESIAN_POINT('',(208.878004975003,3.,-10.7559408318189));
#722=CARTESIAN_POINT('',(222.878004975003,3.,-10.7559408318189));
#723=CARTESIAN_POINT('',(208.878004975003,0.,-10.7559408318189));
#724=CARTESIAN_POINT('Origin',(208.878004975003,0.,3.24405916818101));
#725=CARTESIAN_POINT('',(208.878004975003,0.,-10.7559408318189));
#726=CARTESIAN_POINT('',(208.878004975003,3.,-10.7559408318189));
#727=CARTESIAN_POINT('Origin',(203.828004975003,0.,3.24405916818101));
#728=CARTESIAN_POINT('',(203.828004975003,0.,3.24405916818101));
#729=CARTESIAN_POINT('',(189.828004975003,0.,3.24405916818101));
#730=CARTESIAN_POINT('',(189.828004975003,0.,3.24405916818101));
#731=CARTESIAN_POINT('',(189.828004975003,3.,3.24405916818101));
#732=CARTESIAN_POINT('',(189.828004975003,0.,3.24405916818101));
#733=CARTESIAN_POINT('',(203.828004975003,3.,3.24405916818101));
#734=CARTESIAN_POINT('',(189.828004975003,3.,3.24405916818101));
#735=CARTESIAN_POINT('',(203.828004975003,0.,3.24405916818101));
#736=CARTESIAN_POINT('Origin',(203.828004975003,0.,-10.7559408318189));
#737=CARTESIAN_POINT('',(203.828004975003,0.,-10.7559408318189));
#738=CARTESIAN_POINT('',(203.828004975003,0.,3.24405916818101));
#739=CARTESIAN_POINT('',(203.828004975003,3.,-10.7559408318189));
#740=CARTESIAN_POINT('',(203.828004975003,3.,3.24405916818101));
#741=CARTESIAN_POINT('',(203.828004975003,0.,-10.7559408318189));
#742=CARTESIAN_POINT('Origin',(189.828004975003,0.,-10.7559408318189));
#743=CARTESIAN_POINT('',(189.828004975003,0.,-10.7559408318189));
#744=CARTESIAN_POINT('',(203.828004975003,0.,-10.7559408318189));
#745=CARTESIAN_POINT('',(189.828004975003,3.,-10.7559408318189));
#746=CARTESIAN_POINT('',(203.828004975003,3.,-10.7559408318189));
#747=CARTESIAN_POINT('',(189.828004975003,0.,-10.7559408318189));
#748=CARTESIAN_POINT('Origin',(189.828004975003,0.,3.24405916818101));
#749=CARTESIAN_POINT('',(189.828004975003,0.,-10.7559408318189));
#750=CARTESIAN_POINT('',(189.828004975003,3.,-10.7559408318189));
#751=CARTESIAN_POINT('Origin',(129.134957914422,0.,16.5252378757708));
#752=CARTESIAN_POINT('',(127.684957914422,3.,16.5252378757708));
#753=CARTESIAN_POINT('Origin',(129.134957914422,3.,16.5252378757708));
#754=CARTESIAN_POINT('',(127.684957914422,0.,16.5252378757708));
#755=CARTESIAN_POINT('',(127.684957914422,0.,16.5252378757708));
#756=CARTESIAN_POINT('Origin',(129.134957914422,0.,16.5252378757708));
#757=CARTESIAN_POINT('Origin',(124.134958137939,0.,-28.4747623477467));
#758=CARTESIAN_POINT('',(124.134958137939,0.,21.5252376522533));
#759=CARTESIAN_POINT('',(124.134958137939,0.,-28.4747623477467));
#760=CARTESIAN_POINT('',(124.134958137939,0.,21.5252376522533));
#761=CARTESIAN_POINT('',(124.134958137939,3.,21.5252376522533));
#762=CARTESIAN_POINT('',(124.134958137939,0.,21.5252376522533));
#763=CARTESIAN_POINT('',(124.134958137939,3.,-28.4747623477467));
#764=CARTESIAN_POINT('',(124.134958137939,3.,21.5252376522533));
#765=CARTESIAN_POINT('',(124.134958137939,0.,-28.4747623477467));
#766=CARTESIAN_POINT('Origin',(238.748446081173,0.,-28.4747623477467));
#767=CARTESIAN_POINT('',(238.748446081173,0.,-28.4747623477467));
#768=CARTESIAN_POINT('',(124.134958137939,0.,-28.4747623477467));
#769=CARTESIAN_POINT('',(238.748446081173,3.,-28.4747623477467));
#770=CARTESIAN_POINT('',(124.134958137939,3.,-28.4747623477467));
#771=CARTESIAN_POINT('',(238.748446081173,0.,-28.4747623477467));
#772=CARTESIAN_POINT('Origin',(238.748446081173,0.,21.5252376522533));
#773=CARTESIAN_POINT('',(238.748446081173,0.,21.5252376522533));
#774=CARTESIAN_POINT('',(238.748446081173,0.,-28.4747623477467));
#775=CARTESIAN_POINT('',(238.748446081173,3.,21.5252376522533));
#776=CARTESIAN_POINT('',(238.748446081173,3.,-28.4747623477467));
#777=CARTESIAN_POINT('',(238.748446081173,0.,21.5252376522533));
#778=CARTESIAN_POINT('Origin',(124.134958137939,0.,21.5252376522533));
#779=CARTESIAN_POINT('',(238.748446081173,0.,21.5252376522533));
#780=CARTESIAN_POINT('',(238.748446081173,3.,21.5252376522533));
#781=CARTESIAN_POINT('Origin',(181.441702109556,3.,-3.47476234774666));
#782=CARTESIAN_POINT('Origin',(181.441702109556,0.,-3.47476234774666));
#783=UNCERTAINTY_MEASURE_WITH_UNIT(LENGTH_MEASURE(0.01),#787,
'DISTANCE_ACCURACY_VALUE',
'Maximum model space distance between geometric entities at asserted c
onnectivities');
#784=UNCERTAINTY_MEASURE_WITH_UNIT(LENGTH_MEASURE(0.01),#787,
'DISTANCE_ACCURACY_VALUE',
'Maximum model space distance between geometric entities at asserted c
onnectivities');
#785=(
GEOMETRIC_REPRESENTATION_CONTEXT(3)
GLOBAL_UNCERTAINTY_ASSIGNED_CONTEXT((#783))
GLOBAL_UNIT_ASSIGNED_CONTEXT((#787,#789,#790))
REPRESENTATION_CONTEXT('','3D')
);
#786=(
GEOMETRIC_REPRESENTATION_CONTEXT(3)
GLOBAL_UNCERTAINTY_ASSIGNED_CONTEXT((#784))
GLOBAL_UNIT_ASSIGNED_CONTEXT((#787,#789,#790))
REPRESENTATION_CONTEXT('','3D')
);
#787=(
LENGTH_UNIT()
NAMED_UNIT(*)
SI_UNIT(.MILLI.,.METRE.)
);
#788=(
LENGTH_UNIT()
NAMED_UNIT(*)
SI_UNIT($,.METRE.)
);
#789=(
NAMED_UNIT(*)
PLANE_ANGLE_UNIT()
SI_UNIT($,.RADIAN.)
);
#790=(
NAMED_UNIT(*)
SI_UNIT($,.STERADIAN.)
SOLID_ANGLE_UNIT()
);
#791=SHAPE_DEFINITION_REPRESENTATION(#792,#793);
#792=PRODUCT_DEFINITION_SHAPE('',$,#795);
#793=SHAPE_REPRESENTATION('',(#499),#785);
#794=PRODUCT_DEFINITION_CONTEXT('part definition',#799,'design');
#795=PRODUCT_DEFINITION('2026-03-31-14-26-59-995',
'Hippogriff''s Hack Pad',#796,#794);
#796=PRODUCT_DEFINITION_FORMATION('',$,#801);
#797=PRODUCT_RELATED_PRODUCT_CATEGORY('Hippogriff''s Hack Pad',
'Hippogriff''s Hack Pad',(#801));
#798=APPLICATION_PROTOCOL_DEFINITION('international standard',
'automotive_design',2009,#799);
#799=APPLICATION_CONTEXT(
'Core Data for Automotive Mechanical Design Process');
#800=PRODUCT_CONTEXT('part definition',#799,'mechanical');
#801=PRODUCT('2026-03-31-14-26-59-995','Hippogriff''s Hack Pad',$,(#800));
#802=PRESENTATION_STYLE_ASSIGNMENT((#803));
#803=SURFACE_STYLE_USAGE(.BOTH.,#804);
#804=SURFACE_SIDE_STYLE('',(#805));
#805=SURFACE_STYLE_FILL_AREA(#806);
#806=FILL_AREA_STYLE('Steel - Satin',(#807));
#807=FILL_AREA_STYLE_COLOUR('Steel - Satin',#808);
#808=COLOUR_RGB('Steel - Satin',0.627450980392157,0.627450980392157,0.627450980392157);
ENDSEC;
END-ISO-10303-21;
