ISO-10303-21;
HEADER;
/* Generated by software containing ST-Developer
 * from STEP Tools, Inc. (www.steptools.com) 
 */

FILE_DESCRIPTION(
/* description */ (''),
/* implementation_level */ '2;1');

FILE_NAME(
/* name */ 'Hippogriff''s Hack Pad - Case.step',
/* time_stamp */ '2026-03-31T23:55:56+01:00',
/* author */ (''),
/* organization */ (''),
/* preprocessor_version */ 'ST-DEVELOPER v20.1',
/* originating_system */ 'Autodesk Translation Framework v14.24.0.0',
/* authorisation */ '');

FILE_SCHEMA (('AUTOMOTIVE_DESIGN { 1 0 10303 214 3 1 1 }'));
ENDSEC;

DATA;
#10=MECHANICAL_DESIGN_GEOMETRIC_PRESENTATION_REPRESENTATION('',(#13),#393);
#11=SHAPE_REPRESENTATION_RELATIONSHIP('SRR','None',#400,#12);
#12=ADVANCED_BREP_SHAPE_REPRESENTATION('',(#14),#392);
#13=STYLED_ITEM('',(#409),#14);
#14=MANIFOLD_SOLID_BREP('Body4',#237);
#15=CYLINDRICAL_SURFACE('',#263,1.45);
#16=CYLINDRICAL_SURFACE('',#264,1.45);
#17=FACE_BOUND('',#39,.T.);
#18=FACE_BOUND('',#40,.T.);
#19=FACE_BOUND('',#44,.T.);
#20=FACE_BOUND('',#45,.T.);
#21=CIRCLE('',#253,1.45);
#22=CIRCLE('',#254,1.45);
#23=CIRCLE('',#258,1.45);
#24=CIRCLE('',#259,1.45);
#25=FACE_OUTER_BOUND('',#37,.T.);
#26=FACE_OUTER_BOUND('',#38,.T.);
#27=FACE_OUTER_BOUND('',#41,.T.);
#28=FACE_OUTER_BOUND('',#42,.T.);
#29=FACE_OUTER_BOUND('',#43,.T.);
#30=FACE_OUTER_BOUND('',#46,.T.);
#31=FACE_OUTER_BOUND('',#47,.T.);
#32=FACE_OUTER_BOUND('',#48,.T.);
#33=FACE_OUTER_BOUND('',#49,.T.);
#34=FACE_OUTER_BOUND('',#50,.T.);
#35=FACE_OUTER_BOUND('',#51,.T.);
#36=FACE_OUTER_BOUND('',#52,.T.);
#37=EDGE_LOOP('',(#155,#156,#157,#158,#159,#160,#161,#162));
#38=EDGE_LOOP('',(#163,#164,#165,#166));
#39=EDGE_LOOP('',(#167));
#40=EDGE_LOOP('',(#168));
#41=EDGE_LOOP('',(#169,#170,#171,#172));
#42=EDGE_LOOP('',(#173,#174,#175,#176));
#43=EDGE_LOOP('',(#177,#178,#179,#180,#181,#182,#183,#184));
#44=EDGE_LOOP('',(#185));
#45=EDGE_LOOP('',(#186));
#46=EDGE_LOOP('',(#187,#188,#189,#190));
#47=EDGE_LOOP('',(#191,#192,#193,#194));
#48=EDGE_LOOP('',(#195,#196,#197,#198));
#49=EDGE_LOOP('',(#199,#200,#201,#202));
#50=EDGE_LOOP('',(#203,#204,#205,#206));
#51=EDGE_LOOP('',(#207,#208,#209,#210));
#52=EDGE_LOOP('',(#211,#212,#213,#214));
#53=LINE('',#331,#79);
#54=LINE('',#333,#80);
#55=LINE('',#335,#81);
#56=LINE('',#337,#82);
#57=LINE('',#339,#83);
#58=LINE('',#341,#84);
#59=LINE('',#343,#85);
#60=LINE('',#344,#86);
#61=LINE('',#347,#87);
#62=LINE('',#349,#88);
#63=LINE('',#350,#89);
#64=LINE('',#357,#90);
#65=LINE('',#358,#91);
#66=LINE('',#361,#92);
#67=LINE('',#363,#93);
#68=LINE('',#364,#94);
#69=LINE('',#367,#95);
#70=LINE('',#368,#96);
#71=LINE('',#370,#97);
#72=LINE('',#371,#98);
#73=LINE('',#378,#99);
#74=LINE('',#379,#100);
#75=LINE('',#381,#101);
#76=LINE('',#384,#102);
#77=LINE('',#386,#103);
#78=LINE('',#388,#104);
#79=VECTOR('',#271,10.);
#80=VECTOR('',#272,10.);
#81=VECTOR('',#273,10.);
#82=VECTOR('',#274,10.);
#83=VECTOR('',#275,10.);
#84=VECTOR('',#276,10.);
#85=VECTOR('',#277,10.);
#86=VECTOR('',#278,10.);
#87=VECTOR('',#281,10.);
#88=VECTOR('',#282,10.);
#89=VECTOR('',#283,10.);
#90=VECTOR('',#290,10.);
#91=VECTOR('',#291,10.);
#92=VECTOR('',#294,10.);
#93=VECTOR('',#295,10.);
#94=VECTOR('',#296,10.);
#95=VECTOR('',#299,10.);
#96=VECTOR('',#300,10.);
#97=VECTOR('',#301,10.);
#98=VECTOR('',#302,10.);
#99=VECTOR('',#309,10.);
#100=VECTOR('',#310,10.);
#101=VECTOR('',#313,10.);
#102=VECTOR('',#318,1.45);
#103=VECTOR('',#321,1.45);
#104=VECTOR('',#324,10.);
#105=VERTEX_POINT('',#329);
#106=VERTEX_POINT('',#330);
#107=VERTEX_POINT('',#332);
#108=VERTEX_POINT('',#334);
#109=VERTEX_POINT('',#336);
#110=VERTEX_POINT('',#338);
#111=VERTEX_POINT('',#340);
#112=VERTEX_POINT('',#342);
#113=VERTEX_POINT('',#346);
#114=VERTEX_POINT('',#348);
#115=VERTEX_POINT('',#351);
#116=VERTEX_POINT('',#353);
#117=VERTEX_POINT('',#356);
#118=VERTEX_POINT('',#360);
#119=VERTEX_POINT('',#362);
#120=VERTEX_POINT('',#366);
#121=VERTEX_POINT('',#369);
#122=VERTEX_POINT('',#372);
#123=VERTEX_POINT('',#374);
#124=VERTEX_POINT('',#377);
#125=EDGE_CURVE('',#105,#106,#53,.T.);
#126=EDGE_CURVE('',#107,#105,#54,.T.);
#127=EDGE_CURVE('',#108,#107,#55,.T.);
#128=EDGE_CURVE('',#109,#108,#56,.T.);
#129=EDGE_CURVE('',#110,#109,#57,.T.);
#130=EDGE_CURVE('',#111,#110,#58,.T.);
#131=EDGE_CURVE('',#112,#111,#59,.T.);
#132=EDGE_CURVE('',#106,#112,#60,.T.);
#133=EDGE_CURVE('',#110,#113,#61,.T.);
#134=EDGE_CURVE('',#113,#114,#62,.T.);
#135=EDGE_CURVE('',#114,#111,#63,.T.);
#136=EDGE_CURVE('',#115,#115,#21,.T.);
#137=EDGE_CURVE('',#116,#116,#22,.T.);
#138=EDGE_CURVE('',#117,#109,#64,.T.);
#139=EDGE_CURVE('',#113,#117,#65,.T.);
#140=EDGE_CURVE('',#107,#118,#66,.T.);
#141=EDGE_CURVE('',#118,#119,#67,.T.);
#142=EDGE_CURVE('',#108,#119,#68,.T.);
#143=EDGE_CURVE('',#112,#120,#69,.T.);
#144=EDGE_CURVE('',#120,#117,#70,.T.);
#145=EDGE_CURVE('',#119,#121,#71,.T.);
#146=EDGE_CURVE('',#121,#106,#72,.T.);
#147=EDGE_CURVE('',#122,#122,#23,.T.);
#148=EDGE_CURVE('',#123,#123,#24,.T.);
#149=EDGE_CURVE('',#124,#105,#73,.T.);
#150=EDGE_CURVE('',#118,#124,#74,.T.);
#151=EDGE_CURVE('',#124,#121,#75,.T.);
#152=EDGE_CURVE('',#122,#115,#76,.T.);
#153=EDGE_CURVE('',#123,#116,#77,.T.);
#154=EDGE_CURVE('',#114,#120,#78,.T.);
#155=ORIENTED_EDGE('',*,*,#125,.F.);
#156=ORIENTED_EDGE('',*,*,#126,.F.);
#157=ORIENTED_EDGE('',*,*,#127,.F.);
#158=ORIENTED_EDGE('',*,*,#128,.F.);
#159=ORIENTED_EDGE('',*,*,#129,.F.);
#160=ORIENTED_EDGE('',*,*,#130,.F.);
#161=ORIENTED_EDGE('',*,*,#131,.F.);
#162=ORIENTED_EDGE('',*,*,#132,.F.);
#163=ORIENTED_EDGE('',*,*,#130,.T.);
#164=ORIENTED_EDGE('',*,*,#133,.T.);
#165=ORIENTED_EDGE('',*,*,#134,.T.);
#166=ORIENTED_EDGE('',*,*,#135,.T.);
#167=ORIENTED_EDGE('',*,*,#136,.F.);
#168=ORIENTED_EDGE('',*,*,#137,.F.);
#169=ORIENTED_EDGE('',*,*,#129,.T.);
#170=ORIENTED_EDGE('',*,*,#138,.F.);
#171=ORIENTED_EDGE('',*,*,#139,.F.);
#172=ORIENTED_EDGE('',*,*,#133,.F.);
#173=ORIENTED_EDGE('',*,*,#127,.T.);
#174=ORIENTED_EDGE('',*,*,#140,.T.);
#175=ORIENTED_EDGE('',*,*,#141,.T.);
#176=ORIENTED_EDGE('',*,*,#142,.F.);
#177=ORIENTED_EDGE('',*,*,#132,.T.);
#178=ORIENTED_EDGE('',*,*,#143,.T.);
#179=ORIENTED_EDGE('',*,*,#144,.T.);
#180=ORIENTED_EDGE('',*,*,#138,.T.);
#181=ORIENTED_EDGE('',*,*,#128,.T.);
#182=ORIENTED_EDGE('',*,*,#142,.T.);
#183=ORIENTED_EDGE('',*,*,#145,.T.);
#184=ORIENTED_EDGE('',*,*,#146,.T.);
#185=ORIENTED_EDGE('',*,*,#147,.T.);
#186=ORIENTED_EDGE('',*,*,#148,.T.);
#187=ORIENTED_EDGE('',*,*,#126,.T.);
#188=ORIENTED_EDGE('',*,*,#149,.F.);
#189=ORIENTED_EDGE('',*,*,#150,.F.);
#190=ORIENTED_EDGE('',*,*,#140,.F.);
#191=ORIENTED_EDGE('',*,*,#150,.T.);
#192=ORIENTED_EDGE('',*,*,#151,.T.);
#193=ORIENTED_EDGE('',*,*,#145,.F.);
#194=ORIENTED_EDGE('',*,*,#141,.F.);
#195=ORIENTED_EDGE('',*,*,#125,.T.);
#196=ORIENTED_EDGE('',*,*,#146,.F.);
#197=ORIENTED_EDGE('',*,*,#151,.F.);
#198=ORIENTED_EDGE('',*,*,#149,.T.);
#199=ORIENTED_EDGE('',*,*,#147,.F.);
#200=ORIENTED_EDGE('',*,*,#152,.T.);
#201=ORIENTED_EDGE('',*,*,#136,.T.);
#202=ORIENTED_EDGE('',*,*,#152,.F.);
#203=ORIENTED_EDGE('',*,*,#148,.F.);
#204=ORIENTED_EDGE('',*,*,#153,.T.);
#205=ORIENTED_EDGE('',*,*,#137,.T.);
#206=ORIENTED_EDGE('',*,*,#153,.F.);
#207=ORIENTED_EDGE('',*,*,#134,.F.);
#208=ORIENTED_EDGE('',*,*,#139,.T.);
#209=ORIENTED_EDGE('',*,*,#144,.F.);
#210=ORIENTED_EDGE('',*,*,#154,.F.);
#211=ORIENTED_EDGE('',*,*,#131,.T.);
#212=ORIENTED_EDGE('',*,*,#135,.F.);
#213=ORIENTED_EDGE('',*,*,#154,.T.);
#214=ORIENTED_EDGE('',*,*,#143,.F.);
#215=PLANE('',#251);
#216=PLANE('',#252);
#217=PLANE('',#255);
#218=PLANE('',#256);
#219=PLANE('',#257);
#220=PLANE('',#260);
#221=PLANE('',#261);
#222=PLANE('',#262);
#223=PLANE('',#265);
#224=PLANE('',#266);
#225=ADVANCED_FACE('',(#25),#215,.F.);
#226=ADVANCED_FACE('',(#26,#17,#18),#216,.F.);
#227=ADVANCED_FACE('',(#27),#217,.T.);
#228=ADVANCED_FACE('',(#28),#218,.T.);
#229=ADVANCED_FACE('',(#29,#19,#20),#219,.T.);
#230=ADVANCED_FACE('',(#30),#220,.T.);
#231=ADVANCED_FACE('',(#31),#221,.T.);
#232=ADVANCED_FACE('',(#32),#222,.T.);
#233=ADVANCED_FACE('',(#33),#15,.F.);
#234=ADVANCED_FACE('',(#34),#16,.F.);
#235=ADVANCED_FACE('',(#35),#223,.T.);
#236=ADVANCED_FACE('',(#36),#224,.T.);
#237=CLOSED_SHELL('',(#225,#226,#227,#228,#229,#230,#231,#232,#233,#234,
#235,#236));
#238=DERIVED_UNIT_ELEMENT(#240,1.);
#239=DERIVED_UNIT_ELEMENT(#395,-3.);
#240=(
MASS_UNIT()
NAMED_UNIT(*)
SI_UNIT(.KILO.,.GRAM.)
);
#241=DERIVED_UNIT((#238,#239));
#242=MEASURE_REPRESENTATION_ITEM('density measure',
POSITIVE_RATIO_MEASURE(7850.),#241);
#243=PROPERTY_DEFINITION_REPRESENTATION(#248,#245);
#244=PROPERTY_DEFINITION_REPRESENTATION(#249,#246);
#245=REPRESENTATION('material name',(#247),#392);
#246=REPRESENTATION('density',(#242),#392);
#247=DESCRIPTIVE_REPRESENTATION_ITEM('Steel','Steel');
#248=PROPERTY_DEFINITION('material property','material name',#402);
#249=PROPERTY_DEFINITION('material property','density of part',#402);
#250=AXIS2_PLACEMENT_3D('',#327,#267,#268);
#251=AXIS2_PLACEMENT_3D('',#328,#269,#270);
#252=AXIS2_PLACEMENT_3D('',#345,#279,#280);
#253=AXIS2_PLACEMENT_3D('',#352,#284,#285);
#254=AXIS2_PLACEMENT_3D('',#354,#286,#287);
#255=AXIS2_PLACEMENT_3D('',#355,#288,#289);
#256=AXIS2_PLACEMENT_3D('',#359,#292,#293);
#257=AXIS2_PLACEMENT_3D('',#365,#297,#298);
#258=AXIS2_PLACEMENT_3D('',#373,#303,#304);
#259=AXIS2_PLACEMENT_3D('',#375,#305,#306);
#260=AXIS2_PLACEMENT_3D('',#376,#307,#308);
#261=AXIS2_PLACEMENT_3D('',#380,#311,#312);
#262=AXIS2_PLACEMENT_3D('',#382,#314,#315);
#263=AXIS2_PLACEMENT_3D('',#383,#316,#317);
#264=AXIS2_PLACEMENT_3D('',#385,#319,#320);
#265=AXIS2_PLACEMENT_3D('',#387,#322,#323);
#266=AXIS2_PLACEMENT_3D('',#389,#325,#326);
#267=DIRECTION('axis',(0.,0.,1.));
#268=DIRECTION('refdir',(1.,0.,0.));
#269=DIRECTION('center_axis',(1.,0.,0.));
#270=DIRECTION('ref_axis',(0.,0.,-1.));
#271=DIRECTION('',(0.,1.,0.));
#272=DIRECTION('',(0.,0.,1.));
#273=DIRECTION('',(0.,-1.,0.));
#274=DIRECTION('',(0.,0.,1.));
#275=DIRECTION('',(0.,1.,0.));
#276=DIRECTION('',(0.,0.,-1.));
#277=DIRECTION('',(0.,-1.,0.));
#278=DIRECTION('',(0.,0.,1.));
#279=DIRECTION('center_axis',(0.,1.,0.));
#280=DIRECTION('ref_axis',(1.,0.,0.));
#281=DIRECTION('',(1.,0.,0.));
#282=DIRECTION('',(0.,0.,1.));
#283=DIRECTION('',(-1.,0.,0.));
#284=DIRECTION('center_axis',(0.,-1.,0.));
#285=DIRECTION('ref_axis',(1.,0.,0.));
#286=DIRECTION('center_axis',(0.,-1.,0.));
#287=DIRECTION('ref_axis',(1.,0.,0.));
#288=DIRECTION('center_axis',(0.,0.,-1.));
#289=DIRECTION('ref_axis',(-1.,0.,0.));
#290=DIRECTION('',(-1.,0.,0.));
#291=DIRECTION('',(0.,1.,0.));
#292=DIRECTION('center_axis',(0.,0.,1.));
#293=DIRECTION('ref_axis',(1.,0.,0.));
#294=DIRECTION('',(1.,0.,0.));
#295=DIRECTION('',(0.,1.,0.));
#296=DIRECTION('',(1.,0.,0.));
#297=DIRECTION('center_axis',(0.,1.,0.));
#298=DIRECTION('ref_axis',(1.,0.,0.));
#299=DIRECTION('',(1.,0.,0.));
#300=DIRECTION('',(0.,0.,-1.));
#301=DIRECTION('',(0.,0.,1.));
#302=DIRECTION('',(-1.,0.,0.));
#303=DIRECTION('center_axis',(0.,-1.,0.));
#304=DIRECTION('ref_axis',(1.,0.,0.));
#305=DIRECTION('center_axis',(0.,-1.,0.));
#306=DIRECTION('ref_axis',(1.,0.,0.));
#307=DIRECTION('center_axis',(0.,1.,0.));
#308=DIRECTION('ref_axis',(0.,0.,1.));
#309=DIRECTION('',(-1.,0.,0.));
#310=DIRECTION('',(0.,0.,1.));
#311=DIRECTION('center_axis',(-1.,0.,0.));
#312=DIRECTION('ref_axis',(0.,0.,1.));
#313=DIRECTION('',(0.,1.,0.));
#314=DIRECTION('center_axis',(0.,0.,-1.));
#315=DIRECTION('ref_axis',(-1.,0.,0.));
#316=DIRECTION('center_axis',(0.,1.,0.));
#317=DIRECTION('ref_axis',(1.,0.,0.));
#318=DIRECTION('',(0.,-1.,0.));
#319=DIRECTION('center_axis',(0.,1.,0.));
#320=DIRECTION('ref_axis',(1.,0.,0.));
#321=DIRECTION('',(0.,-1.,0.));
#322=DIRECTION('center_axis',(1.,0.,0.));
#323=DIRECTION('ref_axis',(0.,0.,-1.));
#324=DIRECTION('',(0.,1.,0.));
#325=DIRECTION('center_axis',(0.,0.,1.));
#326=DIRECTION('ref_axis',(1.,0.,0.));
#327=CARTESIAN_POINT('',(0.,0.,0.));
#328=CARTESIAN_POINT('Origin',(0.,0.,-30.));
#329=CARTESIAN_POINT('',(0.,6.,10.));
#330=CARTESIAN_POINT('',(0.,13.,10.));
#331=CARTESIAN_POINT('',(0.,0.,10.));
#332=CARTESIAN_POINT('',(0.,6.,-19.4));
#333=CARTESIAN_POINT('',(0.,6.,-17.35));
#334=CARTESIAN_POINT('',(0.,13.,-19.4));
#335=CARTESIAN_POINT('',(0.,0.,-19.4));
#336=CARTESIAN_POINT('',(0.,13.,-30.));
#337=CARTESIAN_POINT('',(0.,13.,-17.5));
#338=CARTESIAN_POINT('',(0.,0.,-30.));
#339=CARTESIAN_POINT('',(0.,0.,-30.));
#340=CARTESIAN_POINT('',(0.,0.,20.));
#341=CARTESIAN_POINT('',(0.,0.,-17.5));
#342=CARTESIAN_POINT('',(0.,13.,20.));
#343=CARTESIAN_POINT('',(0.,0.,20.));
#344=CARTESIAN_POINT('',(0.,13.,-17.5));
#345=CARTESIAN_POINT('Origin',(37.3067439716165,0.,-5.));
#346=CARTESIAN_POINT('',(94.6134879432331,0.,-30.));
#347=CARTESIAN_POINT('',(-20.,0.,-30.));
#348=CARTESIAN_POINT('',(94.6134879432331,0.,20.));
#349=CARTESIAN_POINT('',(94.6134879432331,0.,-30.));
#350=CARTESIAN_POINT('',(94.6134879432331,0.,20.));
#351=CARTESIAN_POINT('',(88.5500013411045,0.,-25.000000372529));
#352=CARTESIAN_POINT('Origin',(90.0000013411045,0.,-25.000000372529));
#353=CARTESIAN_POINT('',(88.5500013411045,0.,15.0000002235174));
#354=CARTESIAN_POINT('Origin',(90.0000013411045,0.,15.0000002235174));
#355=CARTESIAN_POINT('Origin',(94.6134879432331,0.,-30.));
#356=CARTESIAN_POINT('',(94.6134879432331,13.,-30.));
#357=CARTESIAN_POINT('',(-20.,13.,-30.));
#358=CARTESIAN_POINT('',(94.6134879432331,0.,-30.));
#359=CARTESIAN_POINT('Origin',(-9.78651205676696,0.,-19.4));
#360=CARTESIAN_POINT('',(84.6134879432331,6.,-19.4));
#361=CARTESIAN_POINT('',(13.813487943233,6.,-19.4));
#362=CARTESIAN_POINT('',(84.6134879432331,13.,-19.4));
#363=CARTESIAN_POINT('',(84.6134879432331,0.,-19.4));
#364=CARTESIAN_POINT('',(-9.78651205676696,13.,-19.4));
#365=CARTESIAN_POINT('Origin',(37.3067439716165,13.,-5.));
#366=CARTESIAN_POINT('',(94.6134879432331,13.,20.));
#367=CARTESIAN_POINT('',(94.6134879432331,13.,20.));
#368=CARTESIAN_POINT('',(94.6134879432331,13.,-30.));
#369=CARTESIAN_POINT('',(84.6134879432331,13.,10.));
#370=CARTESIAN_POINT('',(84.6134879432331,13.,-19.4));
#371=CARTESIAN_POINT('',(84.6134879432331,13.,10.));
#372=CARTESIAN_POINT('',(88.5500013411045,13.,-25.000000372529));
#373=CARTESIAN_POINT('Origin',(90.0000013411045,13.,-25.000000372529));
#374=CARTESIAN_POINT('',(88.5500013411045,13.,15.0000002235174));
#375=CARTESIAN_POINT('Origin',(90.0000013411045,13.,15.0000002235174));
#376=CARTESIAN_POINT('Origin',(37.413487943233,6.,-4.7));
#377=CARTESIAN_POINT('',(84.6134879432331,6.,10.));
#378=CARTESIAN_POINT('',(61.013487943233,6.,10.));
#379=CARTESIAN_POINT('',(84.6134879432331,6.,-12.05));
#380=CARTESIAN_POINT('Origin',(84.6134879432331,0.,-19.4));
#381=CARTESIAN_POINT('',(84.6134879432331,0.,10.));
#382=CARTESIAN_POINT('Origin',(84.6134879432331,0.,10.));
#383=CARTESIAN_POINT('Origin',(90.0000013411045,0.,-25.000000372529));
#384=CARTESIAN_POINT('',(88.5500013411045,0.,-25.000000372529));
#385=CARTESIAN_POINT('Origin',(90.0000013411045,0.,15.0000002235174));
#386=CARTESIAN_POINT('',(88.5500013411045,0.,15.0000002235174));
#387=CARTESIAN_POINT('Origin',(94.6134879432331,0.,20.));
#388=CARTESIAN_POINT('',(94.6134879432331,0.,20.));
#389=CARTESIAN_POINT('Origin',(-20.,0.,20.));
#390=UNCERTAINTY_MEASURE_WITH_UNIT(LENGTH_MEASURE(0.01),#394,
'DISTANCE_ACCURACY_VALUE',
'Maximum model space distance between geometric entities at asserted c
onnectivities');
#391=UNCERTAINTY_MEASURE_WITH_UNIT(LENGTH_MEASURE(0.01),#394,
'DISTANCE_ACCURACY_VALUE',
'Maximum model space distance between geometric entities at asserted c
onnectivities');
#392=(
GEOMETRIC_REPRESENTATION_CONTEXT(3)
GLOBAL_UNCERTAINTY_ASSIGNED_CONTEXT((#390))
GLOBAL_UNIT_ASSIGNED_CONTEXT((#394,#396,#397))
REPRESENTATION_CONTEXT('','3D')
);
#393=(
GEOMETRIC_REPRESENTATION_CONTEXT(3)
GLOBAL_UNCERTAINTY_ASSIGNED_CONTEXT((#391))
GLOBAL_UNIT_ASSIGNED_CONTEXT((#394,#396,#397))
REPRESENTATION_CONTEXT('','3D')
);
#394=(
LENGTH_UNIT()
NAMED_UNIT(*)
SI_UNIT(.MILLI.,.METRE.)
);
#395=(
LENGTH_UNIT()
NAMED_UNIT(*)
SI_UNIT($,.METRE.)
);
#396=(
NAMED_UNIT(*)
PLANE_ANGLE_UNIT()
SI_UNIT($,.RADIAN.)
);
#397=(
NAMED_UNIT(*)
SI_UNIT($,.STERADIAN.)
SOLID_ANGLE_UNIT()
);
#398=SHAPE_DEFINITION_REPRESENTATION(#399,#400);
#399=PRODUCT_DEFINITION_SHAPE('',$,#402);
#400=SHAPE_REPRESENTATION('',(#250),#392);
#401=PRODUCT_DEFINITION_CONTEXT('part definition',#406,'design');
#402=PRODUCT_DEFINITION('2026-03-31-14-26-59-995',
'Hippogriff''s Hack Pad',#403,#401);
#403=PRODUCT_DEFINITION_FORMATION('',$,#408);
#404=PRODUCT_RELATED_PRODUCT_CATEGORY('Hippogriff''s Hack Pad',
'Hippogriff''s Hack Pad',(#408));
#405=APPLICATION_PROTOCOL_DEFINITION('international standard',
'automotive_design',2009,#406);
#406=APPLICATION_CONTEXT(
'Core Data for Automotive Mechanical Design Process');
#407=PRODUCT_CONTEXT('part definition',#406,'mechanical');
#408=PRODUCT('2026-03-31-14-26-59-995','Hippogriff''s Hack Pad',$,(#407));
#409=PRESENTATION_STYLE_ASSIGNMENT((#410));
#410=SURFACE_STYLE_USAGE(.BOTH.,#411);
#411=SURFACE_SIDE_STYLE('',(#412));
#412=SURFACE_STYLE_FILL_AREA(#413);
#413=FILL_AREA_STYLE('Steel - Satin',(#414));
#414=FILL_AREA_STYLE_COLOUR('Steel - Satin',#415);
#415=COLOUR_RGB('Steel - Satin',0.627450980392157,0.627450980392157,0.627450980392157);
ENDSEC;
END-ISO-10303-21;
