ISO-10303-21;
HEADER;
/* Generated by software containing ST-Developer
 * from STEP Tools, Inc. (www.steptools.com) 
 */

FILE_DESCRIPTION(
/* description */ (''),
/* implementation_level */ '2;1');

FILE_NAME(
/* name */ 'Hippogriff''s Hack Pad.step',
/* time_stamp */ '2026-03-31T22:27:48+01:00',
/* author */ (''),
/* organization */ (''),
/* preprocessor_version */ 'ST-DEVELOPER v20.1',
/* originating_system */ 'Autodesk Translation Framework v14.24.0.0',
/* authorisation */ '');

FILE_SCHEMA (('AUTOMOTIVE_DESIGN { 1 0 10303 214 3 1 1 }'));
ENDSEC;

DATA;
#10=MECHANICAL_DESIGN_GEOMETRIC_PRESENTATION_REPRESENTATION('',(#13,#14),
#1147);
#11=SHAPE_REPRESENTATION_RELATIONSHIP('SRR','None',#1154,#12);
#12=ADVANCED_BREP_SHAPE_REPRESENTATION('',(#15,#16),#1146);
#13=STYLED_ITEM('',(#1163),#15);
#14=STYLED_ITEM('',(#1163),#16);
#15=MANIFOLD_SOLID_BREP('Body4',#710);
#16=MANIFOLD_SOLID_BREP('Body7',#711);
#17=CYLINDRICAL_SURFACE('',#737,1.45);
#18=CYLINDRICAL_SURFACE('',#738,1.45);
#19=CYLINDRICAL_SURFACE('',#741,1.45);
#20=CYLINDRICAL_SURFACE('',#744,1.45);
#21=CYLINDRICAL_SURFACE('',#751,1.45);
#22=CYLINDRICAL_SURFACE('',#754,3.75);
#23=CYLINDRICAL_SURFACE('',#765,1.45);
#24=FACE_BOUND('',#95,.T.);
#25=FACE_BOUND('',#96,.T.);
#26=FACE_BOUND('',#100,.T.);
#27=FACE_BOUND('',#101,.T.);
#28=FACE_BOUND('',#131,.T.);
#29=FACE_BOUND('',#132,.T.);
#30=FACE_BOUND('',#133,.T.);
#31=FACE_BOUND('',#134,.T.);
#32=FACE_BOUND('',#135,.T.);
#33=FACE_BOUND('',#136,.T.);
#34=FACE_BOUND('',#137,.T.);
#35=FACE_BOUND('',#138,.T.);
#36=FACE_BOUND('',#140,.T.);
#37=FACE_BOUND('',#141,.T.);
#38=FACE_BOUND('',#142,.T.);
#39=FACE_BOUND('',#143,.T.);
#40=FACE_BOUND('',#144,.T.);
#41=FACE_BOUND('',#145,.T.);
#42=FACE_BOUND('',#146,.T.);
#43=FACE_BOUND('',#147,.T.);
#44=CIRCLE('',#727,1.45);
#45=CIRCLE('',#728,1.45);
#46=CIRCLE('',#732,1.45);
#47=CIRCLE('',#733,1.45);
#48=CIRCLE('',#742,1.45);
#49=CIRCLE('',#743,1.45);
#50=CIRCLE('',#745,1.45);
#51=CIRCLE('',#746,1.45);
#52=CIRCLE('',#752,1.45);
#53=CIRCLE('',#753,1.45);
#54=CIRCLE('',#755,3.75);
#55=CIRCLE('',#756,3.75);
#56=CIRCLE('',#766,1.45);
#57=CIRCLE('',#767,1.45);
#58=FACE_OUTER_BOUND('',#93,.T.);
#59=FACE_OUTER_BOUND('',#94,.T.);
#60=FACE_OUTER_BOUND('',#97,.T.);
#61=FACE_OUTER_BOUND('',#98,.T.);
#62=FACE_OUTER_BOUND('',#99,.T.);
#63=FACE_OUTER_BOUND('',#102,.T.);
#64=FACE_OUTER_BOUND('',#103,.T.);
#65=FACE_OUTER_BOUND('',#104,.T.);
#66=FACE_OUTER_BOUND('',#105,.T.);
#67=FACE_OUTER_BOUND('',#106,.T.);
#68=FACE_OUTER_BOUND('',#107,.T.);
#69=FACE_OUTER_BOUND('',#108,.T.);
#70=FACE_OUTER_BOUND('',#109,.T.);
#71=FACE_OUTER_BOUND('',#110,.T.);
#72=FACE_OUTER_BOUND('',#111,.T.);
#73=FACE_OUTER_BOUND('',#112,.T.);
#74=FACE_OUTER_BOUND('',#113,.T.);
#75=FACE_OUTER_BOUND('',#114,.T.);
#76=FACE_OUTER_BOUND('',#115,.T.);
#77=FACE_OUTER_BOUND('',#116,.T.);
#78=FACE_OUTER_BOUND('',#117,.T.);
#79=FACE_OUTER_BOUND('',#118,.T.);
#80=FACE_OUTER_BOUND('',#119,.T.);
#81=FACE_OUTER_BOUND('',#120,.T.);
#82=FACE_OUTER_BOUND('',#121,.T.);
#83=FACE_OUTER_BOUND('',#122,.T.);
#84=FACE_OUTER_BOUND('',#123,.T.);
#85=FACE_OUTER_BOUND('',#124,.T.);
#86=FACE_OUTER_BOUND('',#125,.T.);
#87=FACE_OUTER_BOUND('',#126,.T.);
#88=FACE_OUTER_BOUND('',#127,.T.);
#89=FACE_OUTER_BOUND('',#128,.T.);
#90=FACE_OUTER_BOUND('',#129,.T.);
#91=FACE_OUTER_BOUND('',#130,.T.);
#92=FACE_OUTER_BOUND('',#139,.T.);
#93=EDGE_LOOP('',(#461,#462,#463,#464,#465,#466,#467,#468));
#94=EDGE_LOOP('',(#469,#470,#471,#472));
#95=EDGE_LOOP('',(#473));
#96=EDGE_LOOP('',(#474));
#97=EDGE_LOOP('',(#475,#476,#477,#478));
#98=EDGE_LOOP('',(#479,#480,#481,#482));
#99=EDGE_LOOP('',(#483,#484,#485,#486,#487,#488,#489,#490));
#100=EDGE_LOOP('',(#491));
#101=EDGE_LOOP('',(#492));
#102=EDGE_LOOP('',(#493,#494,#495,#496));
#103=EDGE_LOOP('',(#497,#498,#499,#500));
#104=EDGE_LOOP('',(#501,#502,#503,#504));
#105=EDGE_LOOP('',(#505,#506,#507,#508));
#106=EDGE_LOOP('',(#509,#510,#511,#512));
#107=EDGE_LOOP('',(#513,#514,#515,#516));
#108=EDGE_LOOP('',(#517,#518,#519,#520));
#109=EDGE_LOOP('',(#521,#522,#523,#524));
#110=EDGE_LOOP('',(#525,#526,#527,#528));
#111=EDGE_LOOP('',(#529,#530,#531,#532));
#112=EDGE_LOOP('',(#533,#534,#535,#536));
#113=EDGE_LOOP('',(#537,#538,#539,#540));
#114=EDGE_LOOP('',(#541,#542,#543,#544));
#115=EDGE_LOOP('',(#545,#546,#547,#548));
#116=EDGE_LOOP('',(#549,#550,#551,#552));
#117=EDGE_LOOP('',(#553,#554,#555,#556));
#118=EDGE_LOOP('',(#557,#558,#559,#560));
#119=EDGE_LOOP('',(#561,#562,#563,#564));
#120=EDGE_LOOP('',(#565,#566,#567,#568));
#121=EDGE_LOOP('',(#569,#570,#571,#572));
#122=EDGE_LOOP('',(#573,#574,#575,#576));
#123=EDGE_LOOP('',(#577,#578,#579,#580));
#124=EDGE_LOOP('',(#581,#582,#583,#584));
#125=EDGE_LOOP('',(#585,#586,#587,#588));
#126=EDGE_LOOP('',(#589,#590,#591,#592));
#127=EDGE_LOOP('',(#593,#594,#595,#596));
#128=EDGE_LOOP('',(#597,#598,#599,#600));
#129=EDGE_LOOP('',(#601,#602,#603,#604));
#130=EDGE_LOOP('',(#605,#606,#607,#608));
#131=EDGE_LOOP('',(#609));
#132=EDGE_LOOP('',(#610,#611,#612,#613));
#133=EDGE_LOOP('',(#614,#615,#616,#617));
#134=EDGE_LOOP('',(#618));
#135=EDGE_LOOP('',(#619));
#136=EDGE_LOOP('',(#620,#621,#622,#623));
#137=EDGE_LOOP('',(#624));
#138=EDGE_LOOP('',(#625));
#139=EDGE_LOOP('',(#626,#627,#628,#629));
#140=EDGE_LOOP('',(#630));
#141=EDGE_LOOP('',(#631,#632,#633,#634));
#142=EDGE_LOOP('',(#635,#636,#637,#638));
#143=EDGE_LOOP('',(#639));
#144=EDGE_LOOP('',(#640));
#145=EDGE_LOOP('',(#641,#642,#643,#644));
#146=EDGE_LOOP('',(#645));
#147=EDGE_LOOP('',(#646));
#148=LINE('',#957,#227);
#149=LINE('',#959,#228);
#150=LINE('',#961,#229);
#151=LINE('',#963,#230);
#152=LINE('',#965,#231);
#153=LINE('',#967,#232);
#154=LINE('',#969,#233);
#155=LINE('',#970,#234);
#156=LINE('',#973,#235);
#157=LINE('',#975,#236);
#158=LINE('',#976,#237);
#159=LINE('',#983,#238);
#160=LINE('',#984,#239);
#161=LINE('',#987,#240);
#162=LINE('',#989,#241);
#163=LINE('',#990,#242);
#164=LINE('',#993,#243);
#165=LINE('',#994,#244);
#166=LINE('',#996,#245);
#167=LINE('',#997,#246);
#168=LINE('',#1004,#247);
#169=LINE('',#1005,#248);
#170=LINE('',#1007,#249);
#171=LINE('',#1010,#250);
#172=LINE('',#1012,#251);
#173=LINE('',#1014,#252);
#174=LINE('',#1020,#253);
#175=LINE('',#1026,#254);
#176=LINE('',#1031,#255);
#177=LINE('',#1033,#256);
#178=LINE('',#1035,#257);
#179=LINE('',#1036,#258);
#180=LINE('',#1039,#259);
#181=LINE('',#1041,#260);
#182=LINE('',#1042,#261);
#183=LINE('',#1045,#262);
#184=LINE('',#1047,#263);
#185=LINE('',#1048,#264);
#186=LINE('',#1050,#265);
#187=LINE('',#1051,#266);
#188=LINE('',#1056,#267);
#189=LINE('',#1062,#268);
#190=LINE('',#1067,#269);
#191=LINE('',#1069,#270);
#192=LINE('',#1071,#271);
#193=LINE('',#1072,#272);
#194=LINE('',#1075,#273);
#195=LINE('',#1077,#274);
#196=LINE('',#1078,#275);
#197=LINE('',#1081,#276);
#198=LINE('',#1083,#277);
#199=LINE('',#1084,#278);
#200=LINE('',#1086,#279);
#201=LINE('',#1087,#280);
#202=LINE('',#1091,#281);
#203=LINE('',#1093,#282);
#204=LINE('',#1095,#283);
#205=LINE('',#1096,#284);
#206=LINE('',#1099,#285);
#207=LINE('',#1101,#286);
#208=LINE('',#1102,#287);
#209=LINE('',#1105,#288);
#210=LINE('',#1107,#289);
#211=LINE('',#1108,#290);
#212=LINE('',#1110,#291);
#213=LINE('',#1111,#292);
#214=LINE('',#1116,#293);
#215=LINE('',#1121,#294);
#216=LINE('',#1123,#295);
#217=LINE('',#1125,#296);
#218=LINE('',#1126,#297);
#219=LINE('',#1129,#298);
#220=LINE('',#1131,#299);
#221=LINE('',#1132,#300);
#222=LINE('',#1135,#301);
#223=LINE('',#1137,#302);
#224=LINE('',#1138,#303);
#225=LINE('',#1140,#304);
#226=LINE('',#1141,#305);
#227=VECTOR('',#778,10.);
#228=VECTOR('',#779,10.);
#229=VECTOR('',#780,10.);
#230=VECTOR('',#781,10.);
#231=VECTOR('',#782,10.);
#232=VECTOR('',#783,10.);
#233=VECTOR('',#784,10.);
#234=VECTOR('',#785,10.);
#235=VECTOR('',#788,10.);
#236=VECTOR('',#789,10.);
#237=VECTOR('',#790,10.);
#238=VECTOR('',#797,10.);
#239=VECTOR('',#798,10.);
#240=VECTOR('',#801,10.);
#241=VECTOR('',#802,10.);
#242=VECTOR('',#803,10.);
#243=VECTOR('',#806,10.);
#244=VECTOR('',#807,10.);
#245=VECTOR('',#808,10.);
#246=VECTOR('',#809,10.);
#247=VECTOR('',#816,10.);
#248=VECTOR('',#817,10.);
#249=VECTOR('',#820,10.);
#250=VECTOR('',#825,1.45);
#251=VECTOR('',#828,1.45);
#252=VECTOR('',#831,10.);
#253=VECTOR('',#838,1.45);
#254=VECTOR('',#845,1.45);
#255=VECTOR('',#850,10.);
#256=VECTOR('',#851,10.);
#257=VECTOR('',#852,10.);
#258=VECTOR('',#853,10.);
#259=VECTOR('',#856,10.);
#260=VECTOR('',#857,10.);
#261=VECTOR('',#858,10.);
#262=VECTOR('',#861,10.);
#263=VECTOR('',#862,10.);
#264=VECTOR('',#863,10.);
#265=VECTOR('',#866,10.);
#266=VECTOR('',#867,10.);
#267=VECTOR('',#872,1.45);
#268=VECTOR('',#879,3.75);
#269=VECTOR('',#884,10.);
#270=VECTOR('',#885,10.);
#271=VECTOR('',#886,10.);
#272=VECTOR('',#887,10.);
#273=VECTOR('',#890,10.);
#274=VECTOR('',#891,10.);
#275=VECTOR('',#892,10.);
#276=VECTOR('',#895,10.);
#277=VECTOR('',#896,10.);
#278=VECTOR('',#897,10.);
#279=VECTOR('',#900,10.);
#280=VECTOR('',#901,10.);
#281=VECTOR('',#904,10.);
#282=VECTOR('',#905,10.);
#283=VECTOR('',#906,10.);
#284=VECTOR('',#907,10.);
#285=VECTOR('',#910,10.);
#286=VECTOR('',#911,10.);
#287=VECTOR('',#912,10.);
#288=VECTOR('',#915,10.);
#289=VECTOR('',#916,10.);
#290=VECTOR('',#917,10.);
#291=VECTOR('',#920,10.);
#292=VECTOR('',#921,10.);
#293=VECTOR('',#926,1.45);
#294=VECTOR('',#931,10.);
#295=VECTOR('',#932,10.);
#296=VECTOR('',#933,10.);
#297=VECTOR('',#934,10.);
#298=VECTOR('',#937,10.);
#299=VECTOR('',#938,10.);
#300=VECTOR('',#939,10.);
#301=VECTOR('',#942,10.);
#302=VECTOR('',#943,10.);
#303=VECTOR('',#944,10.);
#304=VECTOR('',#947,10.);
#305=VECTOR('',#948,10.);
#306=VERTEX_POINT('',#955);
#307=VERTEX_POINT('',#956);
#308=VERTEX_POINT('',#958);
#309=VERTEX_POINT('',#960);
#310=VERTEX_POINT('',#962);
#311=VERTEX_POINT('',#964);
#312=VERTEX_POINT('',#966);
#313=VERTEX_POINT('',#968);
#314=VERTEX_POINT('',#972);
#315=VERTEX_POINT('',#974);
#316=VERTEX_POINT('',#977);
#317=VERTEX_POINT('',#979);
#318=VERTEX_POINT('',#982);
#319=VERTEX_POINT('',#986);
#320=VERTEX_POINT('',#988);
#321=VERTEX_POINT('',#992);
#322=VERTEX_POINT('',#995);
#323=VERTEX_POINT('',#998);
#324=VERTEX_POINT('',#1000);
#325=VERTEX_POINT('',#1003);
#326=VERTEX_POINT('',#1017);
#327=VERTEX_POINT('',#1019);
#328=VERTEX_POINT('',#1023);
#329=VERTEX_POINT('',#1025);
#330=VERTEX_POINT('',#1029);
#331=VERTEX_POINT('',#1030);
#332=VERTEX_POINT('',#1032);
#333=VERTEX_POINT('',#1034);
#334=VERTEX_POINT('',#1038);
#335=VERTEX_POINT('',#1040);
#336=VERTEX_POINT('',#1044);
#337=VERTEX_POINT('',#1046);
#338=VERTEX_POINT('',#1053);
#339=VERTEX_POINT('',#1055);
#340=VERTEX_POINT('',#1059);
#341=VERTEX_POINT('',#1061);
#342=VERTEX_POINT('',#1065);
#343=VERTEX_POINT('',#1066);
#344=VERTEX_POINT('',#1068);
#345=VERTEX_POINT('',#1070);
#346=VERTEX_POINT('',#1074);
#347=VERTEX_POINT('',#1076);
#348=VERTEX_POINT('',#1080);
#349=VERTEX_POINT('',#1082);
#350=VERTEX_POINT('',#1089);
#351=VERTEX_POINT('',#1090);
#352=VERTEX_POINT('',#1092);
#353=VERTEX_POINT('',#1094);
#354=VERTEX_POINT('',#1098);
#355=VERTEX_POINT('',#1100);
#356=VERTEX_POINT('',#1104);
#357=VERTEX_POINT('',#1106);
#358=VERTEX_POINT('',#1113);
#359=VERTEX_POINT('',#1115);
#360=VERTEX_POINT('',#1119);
#361=VERTEX_POINT('',#1120);
#362=VERTEX_POINT('',#1122);
#363=VERTEX_POINT('',#1124);
#364=VERTEX_POINT('',#1128);
#365=VERTEX_POINT('',#1130);
#366=VERTEX_POINT('',#1134);
#367=VERTEX_POINT('',#1136);
#368=EDGE_CURVE('',#306,#307,#148,.T.);
#369=EDGE_CURVE('',#308,#306,#149,.T.);
#370=EDGE_CURVE('',#309,#308,#150,.T.);
#371=EDGE_CURVE('',#310,#309,#151,.T.);
#372=EDGE_CURVE('',#311,#310,#152,.T.);
#373=EDGE_CURVE('',#312,#311,#153,.T.);
#374=EDGE_CURVE('',#313,#312,#154,.T.);
#375=EDGE_CURVE('',#307,#313,#155,.T.);
#376=EDGE_CURVE('',#311,#314,#156,.T.);
#377=EDGE_CURVE('',#314,#315,#157,.T.);
#378=EDGE_CURVE('',#315,#312,#158,.T.);
#379=EDGE_CURVE('',#316,#316,#44,.T.);
#380=EDGE_CURVE('',#317,#317,#45,.T.);
#381=EDGE_CURVE('',#318,#310,#159,.T.);
#382=EDGE_CURVE('',#314,#318,#160,.T.);
#383=EDGE_CURVE('',#308,#319,#161,.T.);
#384=EDGE_CURVE('',#319,#320,#162,.T.);
#385=EDGE_CURVE('',#309,#320,#163,.T.);
#386=EDGE_CURVE('',#313,#321,#164,.T.);
#387=EDGE_CURVE('',#321,#318,#165,.T.);
#388=EDGE_CURVE('',#320,#322,#166,.T.);
#389=EDGE_CURVE('',#322,#307,#167,.T.);
#390=EDGE_CURVE('',#323,#323,#46,.T.);
#391=EDGE_CURVE('',#324,#324,#47,.T.);
#392=EDGE_CURVE('',#325,#306,#168,.T.);
#393=EDGE_CURVE('',#319,#325,#169,.T.);
#394=EDGE_CURVE('',#325,#322,#170,.T.);
#395=EDGE_CURVE('',#323,#316,#171,.T.);
#396=EDGE_CURVE('',#324,#317,#172,.T.);
#397=EDGE_CURVE('',#315,#321,#173,.T.);
#398=EDGE_CURVE('',#326,#326,#48,.T.);
#399=EDGE_CURVE('',#326,#327,#174,.T.);
#400=EDGE_CURVE('',#327,#327,#49,.T.);
#401=EDGE_CURVE('',#328,#328,#50,.T.);
#402=EDGE_CURVE('',#328,#329,#175,.T.);
#403=EDGE_CURVE('',#329,#329,#51,.T.);
#404=EDGE_CURVE('',#330,#331,#176,.T.);
#405=EDGE_CURVE('',#331,#332,#177,.T.);
#406=EDGE_CURVE('',#333,#332,#178,.T.);
#407=EDGE_CURVE('',#330,#333,#179,.T.);
#408=EDGE_CURVE('',#334,#330,#180,.T.);
#409=EDGE_CURVE('',#335,#333,#181,.T.);
#410=EDGE_CURVE('',#334,#335,#182,.T.);
#411=EDGE_CURVE('',#336,#334,#183,.T.);
#412=EDGE_CURVE('',#337,#335,#184,.T.);
#413=EDGE_CURVE('',#336,#337,#185,.T.);
#414=EDGE_CURVE('',#331,#336,#186,.T.);
#415=EDGE_CURVE('',#332,#337,#187,.T.);
#416=EDGE_CURVE('',#338,#338,#52,.T.);
#417=EDGE_CURVE('',#338,#339,#188,.T.);
#418=EDGE_CURVE('',#339,#339,#53,.T.);
#419=EDGE_CURVE('',#340,#340,#54,.T.);
#420=EDGE_CURVE('',#340,#341,#189,.T.);
#421=EDGE_CURVE('',#341,#341,#55,.T.);
#422=EDGE_CURVE('',#342,#343,#190,.T.);
#423=EDGE_CURVE('',#343,#344,#191,.T.);
#424=EDGE_CURVE('',#345,#344,#192,.T.);
#425=EDGE_CURVE('',#342,#345,#193,.T.);
#426=EDGE_CURVE('',#346,#342,#194,.T.);
#427=EDGE_CURVE('',#347,#345,#195,.T.);
#428=EDGE_CURVE('',#346,#347,#196,.T.);
#429=EDGE_CURVE('',#348,#346,#197,.T.);
#430=EDGE_CURVE('',#349,#347,#198,.T.);
#431=EDGE_CURVE('',#348,#349,#199,.T.);
#432=EDGE_CURVE('',#343,#348,#200,.T.);
#433=EDGE_CURVE('',#344,#349,#201,.T.);
#434=EDGE_CURVE('',#350,#351,#202,.T.);
#435=EDGE_CURVE('',#351,#352,#203,.T.);
#436=EDGE_CURVE('',#353,#352,#204,.T.);
#437=EDGE_CURVE('',#350,#353,#205,.T.);
#438=EDGE_CURVE('',#354,#350,#206,.T.);
#439=EDGE_CURVE('',#355,#353,#207,.T.);
#440=EDGE_CURVE('',#354,#355,#208,.T.);
#441=EDGE_CURVE('',#356,#354,#209,.T.);
#442=EDGE_CURVE('',#357,#355,#210,.T.);
#443=EDGE_CURVE('',#356,#357,#211,.T.);
#444=EDGE_CURVE('',#351,#356,#212,.T.);
#445=EDGE_CURVE('',#352,#357,#213,.T.);
#446=EDGE_CURVE('',#358,#358,#56,.T.);
#447=EDGE_CURVE('',#358,#359,#214,.T.);
#448=EDGE_CURVE('',#359,#359,#57,.T.);
#449=EDGE_CURVE('',#360,#361,#215,.T.);
#450=EDGE_CURVE('',#360,#362,#216,.T.);
#451=EDGE_CURVE('',#363,#362,#217,.T.);
#452=EDGE_CURVE('',#361,#363,#218,.T.);
#453=EDGE_CURVE('',#361,#364,#219,.T.);
#454=EDGE_CURVE('',#365,#363,#220,.T.);
#455=EDGE_CURVE('',#364,#365,#221,.T.);
#456=EDGE_CURVE('',#364,#366,#222,.T.);
#457=EDGE_CURVE('',#367,#365,#223,.T.);
#458=EDGE_CURVE('',#366,#367,#224,.T.);
#459=EDGE_CURVE('',#366,#360,#225,.T.);
#460=EDGE_CURVE('',#362,#367,#226,.T.);
#461=ORIENTED_EDGE('',*,*,#368,.F.);
#462=ORIENTED_EDGE('',*,*,#369,.F.);
#463=ORIENTED_EDGE('',*,*,#370,.F.);
#464=ORIENTED_EDGE('',*,*,#371,.F.);
#465=ORIENTED_EDGE('',*,*,#372,.F.);
#466=ORIENTED_EDGE('',*,*,#373,.F.);
#467=ORIENTED_EDGE('',*,*,#374,.F.);
#468=ORIENTED_EDGE('',*,*,#375,.F.);
#469=ORIENTED_EDGE('',*,*,#373,.T.);
#470=ORIENTED_EDGE('',*,*,#376,.T.);
#471=ORIENTED_EDGE('',*,*,#377,.T.);
#472=ORIENTED_EDGE('',*,*,#378,.T.);
#473=ORIENTED_EDGE('',*,*,#379,.F.);
#474=ORIENTED_EDGE('',*,*,#380,.F.);
#475=ORIENTED_EDGE('',*,*,#372,.T.);
#476=ORIENTED_EDGE('',*,*,#381,.F.);
#477=ORIENTED_EDGE('',*,*,#382,.F.);
#478=ORIENTED_EDGE('',*,*,#376,.F.);
#479=ORIENTED_EDGE('',*,*,#370,.T.);
#480=ORIENTED_EDGE('',*,*,#383,.T.);
#481=ORIENTED_EDGE('',*,*,#384,.T.);
#482=ORIENTED_EDGE('',*,*,#385,.F.);
#483=ORIENTED_EDGE('',*,*,#375,.T.);
#484=ORIENTED_EDGE('',*,*,#386,.T.);
#485=ORIENTED_EDGE('',*,*,#387,.T.);
#486=ORIENTED_EDGE('',*,*,#381,.T.);
#487=ORIENTED_EDGE('',*,*,#371,.T.);
#488=ORIENTED_EDGE('',*,*,#385,.T.);
#489=ORIENTED_EDGE('',*,*,#388,.T.);
#490=ORIENTED_EDGE('',*,*,#389,.T.);
#491=ORIENTED_EDGE('',*,*,#390,.T.);
#492=ORIENTED_EDGE('',*,*,#391,.T.);
#493=ORIENTED_EDGE('',*,*,#369,.T.);
#494=ORIENTED_EDGE('',*,*,#392,.F.);
#495=ORIENTED_EDGE('',*,*,#393,.F.);
#496=ORIENTED_EDGE('',*,*,#383,.F.);
#497=ORIENTED_EDGE('',*,*,#393,.T.);
#498=ORIENTED_EDGE('',*,*,#394,.T.);
#499=ORIENTED_EDGE('',*,*,#388,.F.);
#500=ORIENTED_EDGE('',*,*,#384,.F.);
#501=ORIENTED_EDGE('',*,*,#368,.T.);
#502=ORIENTED_EDGE('',*,*,#389,.F.);
#503=ORIENTED_EDGE('',*,*,#394,.F.);
#504=ORIENTED_EDGE('',*,*,#392,.T.);
#505=ORIENTED_EDGE('',*,*,#390,.F.);
#506=ORIENTED_EDGE('',*,*,#395,.T.);
#507=ORIENTED_EDGE('',*,*,#379,.T.);
#508=ORIENTED_EDGE('',*,*,#395,.F.);
#509=ORIENTED_EDGE('',*,*,#391,.F.);
#510=ORIENTED_EDGE('',*,*,#396,.T.);
#511=ORIENTED_EDGE('',*,*,#380,.T.);
#512=ORIENTED_EDGE('',*,*,#396,.F.);
#513=ORIENTED_EDGE('',*,*,#377,.F.);
#514=ORIENTED_EDGE('',*,*,#382,.T.);
#515=ORIENTED_EDGE('',*,*,#387,.F.);
#516=ORIENTED_EDGE('',*,*,#397,.F.);
#517=ORIENTED_EDGE('',*,*,#374,.T.);
#518=ORIENTED_EDGE('',*,*,#378,.F.);
#519=ORIENTED_EDGE('',*,*,#397,.T.);
#520=ORIENTED_EDGE('',*,*,#386,.F.);
#521=ORIENTED_EDGE('',*,*,#398,.F.);
#522=ORIENTED_EDGE('',*,*,#399,.T.);
#523=ORIENTED_EDGE('',*,*,#400,.T.);
#524=ORIENTED_EDGE('',*,*,#399,.F.);
#525=ORIENTED_EDGE('',*,*,#401,.F.);
#526=ORIENTED_EDGE('',*,*,#402,.T.);
#527=ORIENTED_EDGE('',*,*,#403,.T.);
#528=ORIENTED_EDGE('',*,*,#402,.F.);
#529=ORIENTED_EDGE('',*,*,#404,.T.);
#530=ORIENTED_EDGE('',*,*,#405,.T.);
#531=ORIENTED_EDGE('',*,*,#406,.F.);
#532=ORIENTED_EDGE('',*,*,#407,.F.);
#533=ORIENTED_EDGE('',*,*,#408,.T.);
#534=ORIENTED_EDGE('',*,*,#407,.T.);
#535=ORIENTED_EDGE('',*,*,#409,.F.);
#536=ORIENTED_EDGE('',*,*,#410,.F.);
#537=ORIENTED_EDGE('',*,*,#411,.T.);
#538=ORIENTED_EDGE('',*,*,#410,.T.);
#539=ORIENTED_EDGE('',*,*,#412,.F.);
#540=ORIENTED_EDGE('',*,*,#413,.F.);
#541=ORIENTED_EDGE('',*,*,#414,.T.);
#542=ORIENTED_EDGE('',*,*,#413,.T.);
#543=ORIENTED_EDGE('',*,*,#415,.F.);
#544=ORIENTED_EDGE('',*,*,#405,.F.);
#545=ORIENTED_EDGE('',*,*,#416,.F.);
#546=ORIENTED_EDGE('',*,*,#417,.T.);
#547=ORIENTED_EDGE('',*,*,#418,.T.);
#548=ORIENTED_EDGE('',*,*,#417,.F.);
#549=ORIENTED_EDGE('',*,*,#419,.F.);
#550=ORIENTED_EDGE('',*,*,#420,.T.);
#551=ORIENTED_EDGE('',*,*,#421,.T.);
#552=ORIENTED_EDGE('',*,*,#420,.F.);
#553=ORIENTED_EDGE('',*,*,#422,.T.);
#554=ORIENTED_EDGE('',*,*,#423,.T.);
#555=ORIENTED_EDGE('',*,*,#424,.F.);
#556=ORIENTED_EDGE('',*,*,#425,.F.);
#557=ORIENTED_EDGE('',*,*,#426,.T.);
#558=ORIENTED_EDGE('',*,*,#425,.T.);
#559=ORIENTED_EDGE('',*,*,#427,.F.);
#560=ORIENTED_EDGE('',*,*,#428,.F.);
#561=ORIENTED_EDGE('',*,*,#429,.T.);
#562=ORIENTED_EDGE('',*,*,#428,.T.);
#563=ORIENTED_EDGE('',*,*,#430,.F.);
#564=ORIENTED_EDGE('',*,*,#431,.F.);
#565=ORIENTED_EDGE('',*,*,#432,.T.);
#566=ORIENTED_EDGE('',*,*,#431,.T.);
#567=ORIENTED_EDGE('',*,*,#433,.F.);
#568=ORIENTED_EDGE('',*,*,#423,.F.);
#569=ORIENTED_EDGE('',*,*,#434,.T.);
#570=ORIENTED_EDGE('',*,*,#435,.T.);
#571=ORIENTED_EDGE('',*,*,#436,.F.);
#572=ORIENTED_EDGE('',*,*,#437,.F.);
#573=ORIENTED_EDGE('',*,*,#438,.T.);
#574=ORIENTED_EDGE('',*,*,#437,.T.);
#575=ORIENTED_EDGE('',*,*,#439,.F.);
#576=ORIENTED_EDGE('',*,*,#440,.F.);
#577=ORIENTED_EDGE('',*,*,#441,.T.);
#578=ORIENTED_EDGE('',*,*,#440,.T.);
#579=ORIENTED_EDGE('',*,*,#442,.F.);
#580=ORIENTED_EDGE('',*,*,#443,.F.);
#581=ORIENTED_EDGE('',*,*,#444,.T.);
#582=ORIENTED_EDGE('',*,*,#443,.T.);
#583=ORIENTED_EDGE('',*,*,#445,.F.);
#584=ORIENTED_EDGE('',*,*,#435,.F.);
#585=ORIENTED_EDGE('',*,*,#446,.F.);
#586=ORIENTED_EDGE('',*,*,#447,.T.);
#587=ORIENTED_EDGE('',*,*,#448,.T.);
#588=ORIENTED_EDGE('',*,*,#447,.F.);
#589=ORIENTED_EDGE('',*,*,#449,.F.);
#590=ORIENTED_EDGE('',*,*,#450,.T.);
#591=ORIENTED_EDGE('',*,*,#451,.F.);
#592=ORIENTED_EDGE('',*,*,#452,.F.);
#593=ORIENTED_EDGE('',*,*,#453,.F.);
#594=ORIENTED_EDGE('',*,*,#452,.T.);
#595=ORIENTED_EDGE('',*,*,#454,.F.);
#596=ORIENTED_EDGE('',*,*,#455,.F.);
#597=ORIENTED_EDGE('',*,*,#456,.F.);
#598=ORIENTED_EDGE('',*,*,#455,.T.);
#599=ORIENTED_EDGE('',*,*,#457,.F.);
#600=ORIENTED_EDGE('',*,*,#458,.F.);
#601=ORIENTED_EDGE('',*,*,#459,.F.);
#602=ORIENTED_EDGE('',*,*,#458,.T.);
#603=ORIENTED_EDGE('',*,*,#460,.F.);
#604=ORIENTED_EDGE('',*,*,#450,.F.);
#605=ORIENTED_EDGE('',*,*,#460,.T.);
#606=ORIENTED_EDGE('',*,*,#457,.T.);
#607=ORIENTED_EDGE('',*,*,#454,.T.);
#608=ORIENTED_EDGE('',*,*,#451,.T.);
#609=ORIENTED_EDGE('',*,*,#446,.T.);
#610=ORIENTED_EDGE('',*,*,#445,.T.);
#611=ORIENTED_EDGE('',*,*,#442,.T.);
#612=ORIENTED_EDGE('',*,*,#439,.T.);
#613=ORIENTED_EDGE('',*,*,#436,.T.);
#614=ORIENTED_EDGE('',*,*,#433,.T.);
#615=ORIENTED_EDGE('',*,*,#430,.T.);
#616=ORIENTED_EDGE('',*,*,#427,.T.);
#617=ORIENTED_EDGE('',*,*,#424,.T.);
#618=ORIENTED_EDGE('',*,*,#419,.T.);
#619=ORIENTED_EDGE('',*,*,#416,.T.);
#620=ORIENTED_EDGE('',*,*,#415,.T.);
#621=ORIENTED_EDGE('',*,*,#412,.T.);
#622=ORIENTED_EDGE('',*,*,#409,.T.);
#623=ORIENTED_EDGE('',*,*,#406,.T.);
#624=ORIENTED_EDGE('',*,*,#401,.T.);
#625=ORIENTED_EDGE('',*,*,#398,.T.);
#626=ORIENTED_EDGE('',*,*,#459,.T.);
#627=ORIENTED_EDGE('',*,*,#449,.T.);
#628=ORIENTED_EDGE('',*,*,#453,.T.);
#629=ORIENTED_EDGE('',*,*,#456,.T.);
#630=ORIENTED_EDGE('',*,*,#448,.F.);
#631=ORIENTED_EDGE('',*,*,#444,.F.);
#632=ORIENTED_EDGE('',*,*,#434,.F.);
#633=ORIENTED_EDGE('',*,*,#438,.F.);
#634=ORIENTED_EDGE('',*,*,#441,.F.);
#635=ORIENTED_EDGE('',*,*,#432,.F.);
#636=ORIENTED_EDGE('',*,*,#422,.F.);
#637=ORIENTED_EDGE('',*,*,#426,.F.);
#638=ORIENTED_EDGE('',*,*,#429,.F.);
#639=ORIENTED_EDGE('',*,*,#421,.F.);
#640=ORIENTED_EDGE('',*,*,#418,.F.);
#641=ORIENTED_EDGE('',*,*,#414,.F.);
#642=ORIENTED_EDGE('',*,*,#404,.F.);
#643=ORIENTED_EDGE('',*,*,#408,.F.);
#644=ORIENTED_EDGE('',*,*,#411,.F.);
#645=ORIENTED_EDGE('',*,*,#403,.F.);
#646=ORIENTED_EDGE('',*,*,#400,.F.);
#647=PLANE('',#725);
#648=PLANE('',#726);
#649=PLANE('',#729);
#650=PLANE('',#730);
#651=PLANE('',#731);
#652=PLANE('',#734);
#653=PLANE('',#735);
#654=PLANE('',#736);
#655=PLANE('',#739);
#656=PLANE('',#740);
#657=PLANE('',#747);
#658=PLANE('',#748);
#659=PLANE('',#749);
#660=PLANE('',#750);
#661=PLANE('',#757);
#662=PLANE('',#758);
#663=PLANE('',#759);
#664=PLANE('',#760);
#665=PLANE('',#761);
#666=PLANE('',#762);
#667=PLANE('',#763);
#668=PLANE('',#764);
#669=PLANE('',#768);
#670=PLANE('',#769);
#671=PLANE('',#770);
#672=PLANE('',#771);
#673=PLANE('',#772);
#674=PLANE('',#773);
#675=ADVANCED_FACE('',(#58),#647,.F.);
#676=ADVANCED_FACE('',(#59,#24,#25),#648,.F.);
#677=ADVANCED_FACE('',(#60),#649,.T.);
#678=ADVANCED_FACE('',(#61),#650,.T.);
#679=ADVANCED_FACE('',(#62,#26,#27),#651,.T.);
#680=ADVANCED_FACE('',(#63),#652,.T.);
#681=ADVANCED_FACE('',(#64),#653,.T.);
#682=ADVANCED_FACE('',(#65),#654,.T.);
#683=ADVANCED_FACE('',(#66),#17,.F.);
#684=ADVANCED_FACE('',(#67),#18,.F.);
#685=ADVANCED_FACE('',(#68),#655,.T.);
#686=ADVANCED_FACE('',(#69),#656,.T.);
#687=ADVANCED_FACE('',(#70),#19,.F.);
#688=ADVANCED_FACE('',(#71),#20,.F.);
#689=ADVANCED_FACE('',(#72),#657,.T.);
#690=ADVANCED_FACE('',(#73),#658,.T.);
#691=ADVANCED_FACE('',(#74),#659,.T.);
#692=ADVANCED_FACE('',(#75),#660,.T.);
#693=ADVANCED_FACE('',(#76),#21,.F.);
#694=ADVANCED_FACE('',(#77),#22,.F.);
#695=ADVANCED_FACE('',(#78),#661,.T.);
#696=ADVANCED_FACE('',(#79),#662,.T.);
#697=ADVANCED_FACE('',(#80),#663,.T.);
#698=ADVANCED_FACE('',(#81),#664,.T.);
#699=ADVANCED_FACE('',(#82),#665,.T.);
#700=ADVANCED_FACE('',(#83),#666,.T.);
#701=ADVANCED_FACE('',(#84),#667,.T.);
#702=ADVANCED_FACE('',(#85),#668,.T.);
#703=ADVANCED_FACE('',(#86),#23,.F.);
#704=ADVANCED_FACE('',(#87),#669,.T.);
#705=ADVANCED_FACE('',(#88),#670,.T.);
#706=ADVANCED_FACE('',(#89),#671,.T.);
#707=ADVANCED_FACE('',(#90),#672,.T.);
#708=ADVANCED_FACE('',(#91,#28,#29,#30,#31,#32,#33,#34,#35),#673,.T.);
#709=ADVANCED_FACE('',(#92,#36,#37,#38,#39,#40,#41,#42,#43),#674,.F.);
#710=CLOSED_SHELL('',(#675,#676,#677,#678,#679,#680,#681,#682,#683,#684,
#685,#686));
#711=CLOSED_SHELL('',(#687,#688,#689,#690,#691,#692,#693,#694,#695,#696,
#697,#698,#699,#700,#701,#702,#703,#704,#705,#706,#707,#708,#709));
#712=DERIVED_UNIT_ELEMENT(#714,1.);
#713=DERIVED_UNIT_ELEMENT(#1149,-3.);
#714=(
MASS_UNIT()
NAMED_UNIT(*)
SI_UNIT(.KILO.,.GRAM.)
);
#715=DERIVED_UNIT((#712,#713));
#716=MEASURE_REPRESENTATION_ITEM('density measure',
POSITIVE_RATIO_MEASURE(7850.),#715);
#717=PROPERTY_DEFINITION_REPRESENTATION(#722,#719);
#718=PROPERTY_DEFINITION_REPRESENTATION(#723,#720);
#719=REPRESENTATION('material name',(#721),#1146);
#720=REPRESENTATION('density',(#716),#1146);
#721=DESCRIPTIVE_REPRESENTATION_ITEM('Steel','Steel');
#722=PROPERTY_DEFINITION('material property','material name',#1156);
#723=PROPERTY_DEFINITION('material property','density of part',#1156);
#724=AXIS2_PLACEMENT_3D('',#953,#774,#775);
#725=AXIS2_PLACEMENT_3D('',#954,#776,#777);
#726=AXIS2_PLACEMENT_3D('',#971,#786,#787);
#727=AXIS2_PLACEMENT_3D('',#978,#791,#792);
#728=AXIS2_PLACEMENT_3D('',#980,#793,#794);
#729=AXIS2_PLACEMENT_3D('',#981,#795,#796);
#730=AXIS2_PLACEMENT_3D('',#985,#799,#800);
#731=AXIS2_PLACEMENT_3D('',#991,#804,#805);
#732=AXIS2_PLACEMENT_3D('',#999,#810,#811);
#733=AXIS2_PLACEMENT_3D('',#1001,#812,#813);
#734=AXIS2_PLACEMENT_3D('',#1002,#814,#815);
#735=AXIS2_PLACEMENT_3D('',#1006,#818,#819);
#736=AXIS2_PLACEMENT_3D('',#1008,#821,#822);
#737=AXIS2_PLACEMENT_3D('',#1009,#823,#824);
#738=AXIS2_PLACEMENT_3D('',#1011,#826,#827);
#739=AXIS2_PLACEMENT_3D('',#1013,#829,#830);
#740=AXIS2_PLACEMENT_3D('',#1015,#832,#833);
#741=AXIS2_PLACEMENT_3D('',#1016,#834,#835);
#742=AXIS2_PLACEMENT_3D('',#1018,#836,#837);
#743=AXIS2_PLACEMENT_3D('',#1021,#839,#840);
#744=AXIS2_PLACEMENT_3D('',#1022,#841,#842);
#745=AXIS2_PLACEMENT_3D('',#1024,#843,#844);
#746=AXIS2_PLACEMENT_3D('',#1027,#846,#847);
#747=AXIS2_PLACEMENT_3D('',#1028,#848,#849);
#748=AXIS2_PLACEMENT_3D('',#1037,#854,#855);
#749=AXIS2_PLACEMENT_3D('',#1043,#859,#860);
#750=AXIS2_PLACEMENT_3D('',#1049,#864,#865);
#751=AXIS2_PLACEMENT_3D('',#1052,#868,#869);
#752=AXIS2_PLACEMENT_3D('',#1054,#870,#871);
#753=AXIS2_PLACEMENT_3D('',#1057,#873,#874);
#754=AXIS2_PLACEMENT_3D('',#1058,#875,#876);
#755=AXIS2_PLACEMENT_3D('',#1060,#877,#878);
#756=AXIS2_PLACEMENT_3D('',#1063,#880,#881);
#757=AXIS2_PLACEMENT_3D('',#1064,#882,#883);
#758=AXIS2_PLACEMENT_3D('',#1073,#888,#889);
#759=AXIS2_PLACEMENT_3D('',#1079,#893,#894);
#760=AXIS2_PLACEMENT_3D('',#1085,#898,#899);
#761=AXIS2_PLACEMENT_3D('',#1088,#902,#903);
#762=AXIS2_PLACEMENT_3D('',#1097,#908,#909);
#763=AXIS2_PLACEMENT_3D('',#1103,#913,#914);
#764=AXIS2_PLACEMENT_3D('',#1109,#918,#919);
#765=AXIS2_PLACEMENT_3D('',#1112,#922,#923);
#766=AXIS2_PLACEMENT_3D('',#1114,#924,#925);
#767=AXIS2_PLACEMENT_3D('',#1117,#927,#928);
#768=AXIS2_PLACEMENT_3D('',#1118,#929,#930);
#769=AXIS2_PLACEMENT_3D('',#1127,#935,#936);
#770=AXIS2_PLACEMENT_3D('',#1133,#940,#941);
#771=AXIS2_PLACEMENT_3D('',#1139,#945,#946);
#772=AXIS2_PLACEMENT_3D('',#1142,#949,#950);
#773=AXIS2_PLACEMENT_3D('',#1143,#951,#952);
#774=DIRECTION('axis',(0.,0.,1.));
#775=DIRECTION('refdir',(1.,0.,0.));
#776=DIRECTION('center_axis',(1.,0.,0.));
#777=DIRECTION('ref_axis',(0.,0.,-1.));
#778=DIRECTION('',(0.,1.,0.));
#779=DIRECTION('',(0.,0.,1.));
#780=DIRECTION('',(0.,-1.,0.));
#781=DIRECTION('',(0.,0.,1.));
#782=DIRECTION('',(0.,1.,0.));
#783=DIRECTION('',(0.,0.,-1.));
#784=DIRECTION('',(0.,-1.,0.));
#785=DIRECTION('',(0.,0.,1.));
#786=DIRECTION('center_axis',(0.,1.,0.));
#787=DIRECTION('ref_axis',(1.,0.,0.));
#788=DIRECTION('',(1.,0.,0.));
#789=DIRECTION('',(0.,0.,1.));
#790=DIRECTION('',(-1.,0.,0.));
#791=DIRECTION('center_axis',(0.,-1.,0.));
#792=DIRECTION('ref_axis',(1.,0.,0.));
#793=DIRECTION('center_axis',(0.,-1.,0.));
#794=DIRECTION('ref_axis',(1.,0.,0.));
#795=DIRECTION('center_axis',(0.,0.,-1.));
#796=DIRECTION('ref_axis',(-1.,0.,0.));
#797=DIRECTION('',(-1.,0.,0.));
#798=DIRECTION('',(0.,1.,0.));
#799=DIRECTION('center_axis',(0.,0.,1.));
#800=DIRECTION('ref_axis',(1.,0.,0.));
#801=DIRECTION('',(1.,0.,0.));
#802=DIRECTION('',(0.,1.,0.));
#803=DIRECTION('',(1.,0.,0.));
#804=DIRECTION('center_axis',(0.,1.,0.));
#805=DIRECTION('ref_axis',(1.,0.,0.));
#806=DIRECTION('',(1.,0.,0.));
#807=DIRECTION('',(0.,0.,-1.));
#808=DIRECTION('',(0.,0.,1.));
#809=DIRECTION('',(-1.,0.,0.));
#810=DIRECTION('center_axis',(0.,-1.,0.));
#811=DIRECTION('ref_axis',(1.,0.,0.));
#812=DIRECTION('center_axis',(0.,-1.,0.));
#813=DIRECTION('ref_axis',(1.,0.,0.));
#814=DIRECTION('center_axis',(0.,1.,0.));
#815=DIRECTION('ref_axis',(0.,0.,1.));
#816=DIRECTION('',(-1.,0.,0.));
#817=DIRECTION('',(0.,0.,1.));
#818=DIRECTION('center_axis',(-1.,0.,0.));
#819=DIRECTION('ref_axis',(0.,0.,1.));
#820=DIRECTION('',(0.,1.,0.));
#821=DIRECTION('center_axis',(0.,0.,-1.));
#822=DIRECTION('ref_axis',(-1.,0.,0.));
#823=DIRECTION('center_axis',(0.,1.,0.));
#824=DIRECTION('ref_axis',(1.,0.,0.));
#825=DIRECTION('',(0.,-1.,0.));
#826=DIRECTION('center_axis',(0.,1.,0.));
#827=DIRECTION('ref_axis',(1.,0.,0.));
#828=DIRECTION('',(0.,-1.,0.));
#829=DIRECTION('center_axis',(1.,0.,0.));
#830=DIRECTION('ref_axis',(0.,0.,-1.));
#831=DIRECTION('',(0.,1.,0.));
#832=DIRECTION('center_axis',(0.,0.,1.));
#833=DIRECTION('ref_axis',(1.,0.,0.));
#834=DIRECTION('center_axis',(0.,1.,0.));
#835=DIRECTION('ref_axis',(1.,0.,0.));
#836=DIRECTION('center_axis',(0.,-1.,0.));
#837=DIRECTION('ref_axis',(1.,0.,0.));
#838=DIRECTION('',(0.,-1.,0.));
#839=DIRECTION('center_axis',(0.,-1.,0.));
#840=DIRECTION('ref_axis',(1.,0.,0.));
#841=DIRECTION('center_axis',(0.,1.,0.));
#842=DIRECTION('ref_axis',(1.,0.,0.));
#843=DIRECTION('center_axis',(0.,-1.,0.));
#844=DIRECTION('ref_axis',(1.,0.,0.));
#845=DIRECTION('',(0.,-1.,0.));
#846=DIRECTION('center_axis',(0.,-1.,0.));
#847=DIRECTION('ref_axis',(1.,0.,0.));
#848=DIRECTION('center_axis',(3.17206578464333E-16,0.,-1.));
#849=DIRECTION('ref_axis',(-1.,0.,-3.17206578464333E-16));
#850=DIRECTION('',(-1.,0.,-3.17206578464333E-16));
#851=DIRECTION('',(0.,1.,0.));
#852=DIRECTION('',(-1.,0.,-3.17206578464333E-16));
#853=DIRECTION('',(0.,1.,0.));
#854=DIRECTION('center_axis',(-1.,0.,2.53765262771466E-15));
#855=DIRECTION('ref_axis',(2.53765262771466E-15,0.,1.));
#856=DIRECTION('',(2.53765262771466E-15,0.,1.));
#857=DIRECTION('',(2.53765262771466E-15,0.,1.));
#858=DIRECTION('',(0.,1.,0.));
#859=DIRECTION('center_axis',(6.34413156928668E-16,0.,1.));
#860=DIRECTION('ref_axis',(1.,0.,-6.34413156928668E-16));
#861=DIRECTION('',(1.,0.,-6.34413156928668E-16));
#862=DIRECTION('',(1.,0.,-6.34413156928668E-16));
#863=DIRECTION('',(0.,1.,0.));
#864=DIRECTION('center_axis',(1.,0.,0.));
#865=DIRECTION('ref_axis',(0.,0.,-1.));
#866=DIRECTION('',(0.,0.,-1.));
#867=DIRECTION('',(0.,0.,-1.));
#868=DIRECTION('center_axis',(0.,1.,0.));
#869=DIRECTION('ref_axis',(1.,0.,0.));
#870=DIRECTION('center_axis',(0.,-1.,0.));
#871=DIRECTION('ref_axis',(1.,0.,0.));
#872=DIRECTION('',(0.,-1.,0.));
#873=DIRECTION('center_axis',(0.,-1.,0.));
#874=DIRECTION('ref_axis',(1.,0.,0.));
#875=DIRECTION('center_axis',(0.,1.,0.));
#876=DIRECTION('ref_axis',(1.,0.,0.));
#877=DIRECTION('center_axis',(0.,-1.,0.));
#878=DIRECTION('ref_axis',(1.,0.,0.));
#879=DIRECTION('',(0.,-1.,0.));
#880=DIRECTION('center_axis',(0.,-1.,0.));
#881=DIRECTION('ref_axis',(1.,0.,0.));
#882=DIRECTION('center_axis',(0.,0.,-1.));
#883=DIRECTION('ref_axis',(-1.,0.,0.));
#884=DIRECTION('',(-1.,0.,0.));
#885=DIRECTION('',(0.,1.,0.));
#886=DIRECTION('',(-1.,0.,0.));
#887=DIRECTION('',(0.,1.,0.));
#888=DIRECTION('center_axis',(-1.,0.,-2.53765262771467E-15));
#889=DIRECTION('ref_axis',(-2.53765262771467E-15,0.,1.));
#890=DIRECTION('',(-2.53765262771467E-15,0.,1.));
#891=DIRECTION('',(-2.53765262771467E-15,0.,1.));
#892=DIRECTION('',(0.,1.,0.));
#893=DIRECTION('center_axis',(-6.34413156928666E-16,0.,1.));
#894=DIRECTION('ref_axis',(1.,0.,6.34413156928666E-16));
#895=DIRECTION('',(1.,0.,6.34413156928666E-16));
#896=DIRECTION('',(1.,0.,6.34413156928666E-16));
#897=DIRECTION('',(0.,1.,0.));
#898=DIRECTION('center_axis',(1.,0.,0.));
#899=DIRECTION('ref_axis',(0.,0.,-1.));
#900=DIRECTION('',(0.,0.,-1.));
#901=DIRECTION('',(0.,0.,-1.));
#902=DIRECTION('center_axis',(0.,0.,-1.));
#903=DIRECTION('ref_axis',(-1.,0.,0.));
#904=DIRECTION('',(-1.,0.,0.));
#905=DIRECTION('',(0.,1.,0.));
#906=DIRECTION('',(-1.,0.,0.));
#907=DIRECTION('',(0.,1.,0.));
#908=DIRECTION('center_axis',(-1.,0.,0.));
#909=DIRECTION('ref_axis',(0.,0.,1.));
#910=DIRECTION('',(0.,0.,1.));
#911=DIRECTION('',(0.,0.,1.));
#912=DIRECTION('',(0.,1.,0.));
#913=DIRECTION('center_axis',(0.,0.,1.));
#914=DIRECTION('ref_axis',(1.,0.,0.));
#915=DIRECTION('',(1.,0.,0.));
#916=DIRECTION('',(1.,0.,0.));
#917=DIRECTION('',(0.,1.,0.));
#918=DIRECTION('center_axis',(1.,0.,0.));
#919=DIRECTION('ref_axis',(0.,0.,-1.));
#920=DIRECTION('',(0.,0.,-1.));
#921=DIRECTION('',(0.,0.,-1.));
#922=DIRECTION('center_axis',(0.,1.,0.));
#923=DIRECTION('ref_axis',(1.,0.,0.));
#924=DIRECTION('center_axis',(0.,-1.,0.));
#925=DIRECTION('ref_axis',(1.,0.,0.));
#926=DIRECTION('',(0.,-1.,0.));
#927=DIRECTION('center_axis',(0.,-1.,0.));
#928=DIRECTION('ref_axis',(1.,0.,0.));
#929=DIRECTION('center_axis',(-1.,0.,0.));
#930=DIRECTION('ref_axis',(0.,0.,1.));
#931=DIRECTION('',(0.,0.,-1.));
#932=DIRECTION('',(0.,1.,0.));
#933=DIRECTION('',(0.,0.,1.));
#934=DIRECTION('',(0.,1.,0.));
#935=DIRECTION('center_axis',(0.,0.,-1.));
#936=DIRECTION('ref_axis',(-1.,0.,0.));
#937=DIRECTION('',(1.,0.,0.));
#938=DIRECTION('',(-1.,0.,0.));
#939=DIRECTION('',(0.,1.,0.));
#940=DIRECTION('center_axis',(1.,0.,0.));
#941=DIRECTION('ref_axis',(0.,0.,-1.));
#942=DIRECTION('',(0.,0.,1.));
#943=DIRECTION('',(0.,0.,-1.));
#944=DIRECTION('',(0.,1.,0.));
#945=DIRECTION('center_axis',(0.,0.,1.));
#946=DIRECTION('ref_axis',(1.,0.,0.));
#947=DIRECTION('',(-1.,0.,0.));
#948=DIRECTION('',(1.,0.,0.));
#949=DIRECTION('center_axis',(0.,1.,0.));
#950=DIRECTION('ref_axis',(1.,0.,0.));
#951=DIRECTION('center_axis',(0.,1.,0.));
#952=DIRECTION('ref_axis',(1.,0.,0.));
#953=CARTESIAN_POINT('',(0.,0.,0.));
#954=CARTESIAN_POINT('Origin',(0.,0.,-30.));
#955=CARTESIAN_POINT('',(0.,6.,10.));
#956=CARTESIAN_POINT('',(0.,13.,10.));
#957=CARTESIAN_POINT('',(0.,0.,10.));
#958=CARTESIAN_POINT('',(0.,6.,-19.4));
#959=CARTESIAN_POINT('',(0.,6.,-17.35));
#960=CARTESIAN_POINT('',(0.,13.,-19.4));
#961=CARTESIAN_POINT('',(0.,0.,-19.4));
#962=CARTESIAN_POINT('',(0.,13.,-30.));
#963=CARTESIAN_POINT('',(0.,13.,-17.5));
#964=CARTESIAN_POINT('',(0.,0.,-30.));
#965=CARTESIAN_POINT('',(0.,0.,-30.));
#966=CARTESIAN_POINT('',(0.,0.,20.));
#967=CARTESIAN_POINT('',(0.,0.,-17.5));
#968=CARTESIAN_POINT('',(0.,13.,20.));
#969=CARTESIAN_POINT('',(0.,0.,20.));
#970=CARTESIAN_POINT('',(0.,13.,-17.5));
#971=CARTESIAN_POINT('Origin',(37.3067439716165,0.,-5.));
#972=CARTESIAN_POINT('',(94.6134879432331,0.,-30.));
#973=CARTESIAN_POINT('',(-20.,0.,-30.));
#974=CARTESIAN_POINT('',(94.6134879432331,0.,20.));
#975=CARTESIAN_POINT('',(94.6134879432331,0.,-30.));
#976=CARTESIAN_POINT('',(94.6134879432331,0.,20.));
#977=CARTESIAN_POINT('',(88.5500013411045,0.,-25.000000372529));
#978=CARTESIAN_POINT('Origin',(90.0000013411045,0.,-25.000000372529));
#979=CARTESIAN_POINT('',(88.5500013411045,0.,15.0000002235174));
#980=CARTESIAN_POINT('Origin',(90.0000013411045,0.,15.0000002235174));
#981=CARTESIAN_POINT('Origin',(94.6134879432331,0.,-30.));
#982=CARTESIAN_POINT('',(94.6134879432331,13.,-30.));
#983=CARTESIAN_POINT('',(-20.,13.,-30.));
#984=CARTESIAN_POINT('',(94.6134879432331,0.,-30.));
#985=CARTESIAN_POINT('Origin',(-9.78651205676696,0.,-19.4));
#986=CARTESIAN_POINT('',(84.6134879432331,6.,-19.4));
#987=CARTESIAN_POINT('',(13.813487943233,6.,-19.4));
#988=CARTESIAN_POINT('',(84.6134879432331,13.,-19.4));
#989=CARTESIAN_POINT('',(84.6134879432331,0.,-19.4));
#990=CARTESIAN_POINT('',(-9.78651205676696,13.,-19.4));
#991=CARTESIAN_POINT('Origin',(37.3067439716165,13.,-5.));
#992=CARTESIAN_POINT('',(94.6134879432331,13.,20.));
#993=CARTESIAN_POINT('',(94.6134879432331,13.,20.));
#994=CARTESIAN_POINT('',(94.6134879432331,13.,-30.));
#995=CARTESIAN_POINT('',(84.6134879432331,13.,10.));
#996=CARTESIAN_POINT('',(84.6134879432331,13.,-19.4));
#997=CARTESIAN_POINT('',(84.6134879432331,13.,10.));
#998=CARTESIAN_POINT('',(88.5500013411045,13.,-25.000000372529));
#999=CARTESIAN_POINT('Origin',(90.0000013411045,13.,-25.000000372529));
#1000=CARTESIAN_POINT('',(88.5500013411045,13.,15.0000002235174));
#1001=CARTESIAN_POINT('Origin',(90.0000013411045,13.,15.0000002235174));
#1002=CARTESIAN_POINT('Origin',(37.413487943233,6.,-4.7));
#1003=CARTESIAN_POINT('',(84.6134879432331,6.,10.));
#1004=CARTESIAN_POINT('',(61.013487943233,6.,10.));
#1005=CARTESIAN_POINT('',(84.6134879432331,6.,-12.05));
#1006=CARTESIAN_POINT('Origin',(84.6134879432331,0.,-19.4));
#1007=CARTESIAN_POINT('',(84.6134879432331,0.,10.));
#1008=CARTESIAN_POINT('Origin',(84.6134879432331,0.,10.));
#1009=CARTESIAN_POINT('Origin',(90.0000013411045,0.,-25.000000372529));
#1010=CARTESIAN_POINT('',(88.5500013411045,0.,-25.000000372529));
#1011=CARTESIAN_POINT('Origin',(90.0000013411045,0.,15.0000002235174));
#1012=CARTESIAN_POINT('',(88.5500013411045,0.,15.0000002235174));
#1013=CARTESIAN_POINT('Origin',(94.6134879432331,0.,20.));
#1014=CARTESIAN_POINT('',(94.6134879432331,0.,20.));
#1015=CARTESIAN_POINT('Origin',(-20.,0.,20.));
#1016=CARTESIAN_POINT('Origin',(234.134959479044,0.,-23.4747627202757));
#1017=CARTESIAN_POINT('',(232.684959479044,3.,-23.4747627202757));
#1018=CARTESIAN_POINT('Origin',(234.134959479044,3.,-23.4747627202757));
#1019=CARTESIAN_POINT('',(232.684959479044,0.,-23.4747627202757));
#1020=CARTESIAN_POINT('',(232.684959479044,0.,-23.4747627202757));
#1021=CARTESIAN_POINT('Origin',(234.134959479044,0.,-23.4747627202757));
#1022=CARTESIAN_POINT('Origin',(129.134957914422,0.,-23.4747627202757));
#1023=CARTESIAN_POINT('',(127.684957914422,3.,-23.4747627202757));
#1024=CARTESIAN_POINT('Origin',(129.134957914422,3.,-23.4747627202757));
#1025=CARTESIAN_POINT('',(127.684957914422,0.,-23.4747627202757));
#1026=CARTESIAN_POINT('',(127.684957914422,0.,-23.4747627202757));
#1027=CARTESIAN_POINT('Origin',(129.134957914422,0.,-23.4747627202757));
#1028=CARTESIAN_POINT('Origin',(184.778004975003,0.,3.24405916818101));
#1029=CARTESIAN_POINT('',(184.778004975003,0.,3.24405916818101));
#1030=CARTESIAN_POINT('',(170.778004975003,0.,3.24405916818101));
#1031=CARTESIAN_POINT('',(170.778004975003,0.,3.24405916818101));
#1032=CARTESIAN_POINT('',(170.778004975003,3.,3.24405916818101));
#1033=CARTESIAN_POINT('',(170.778004975003,0.,3.24405916818101));
#1034=CARTESIAN_POINT('',(184.778004975003,3.,3.24405916818101));
#1035=CARTESIAN_POINT('',(170.778004975003,3.,3.24405916818101));
#1036=CARTESIAN_POINT('',(184.778004975003,0.,3.24405916818101));
#1037=CARTESIAN_POINT('Origin',(184.778004975003,0.,-10.7559408318189));
#1038=CARTESIAN_POINT('',(184.778004975003,0.,-10.7559408318189));
#1039=CARTESIAN_POINT('',(184.778004975003,0.,3.24405916818101));
#1040=CARTESIAN_POINT('',(184.778004975003,3.,-10.7559408318189));
#1041=CARTESIAN_POINT('',(184.778004975003,3.,3.24405916818101));
#1042=CARTESIAN_POINT('',(184.778004975003,0.,-10.7559408318189));
#1043=CARTESIAN_POINT('Origin',(170.778004975003,0.,-10.7559408318189));
#1044=CARTESIAN_POINT('',(170.778004975003,0.,-10.7559408318189));
#1045=CARTESIAN_POINT('',(184.778004975003,0.,-10.7559408318189));
#1046=CARTESIAN_POINT('',(170.778004975003,3.,-10.7559408318189));
#1047=CARTESIAN_POINT('',(184.778004975003,3.,-10.7559408318189));
#1048=CARTESIAN_POINT('',(170.778004975003,0.,-10.7559408318189));
#1049=CARTESIAN_POINT('Origin',(170.778004975003,0.,3.24405916818101));
#1050=CARTESIAN_POINT('',(170.778004975003,0.,-10.7559408318189));
#1051=CARTESIAN_POINT('',(170.778004975003,3.,-10.7559408318189));
#1052=CARTESIAN_POINT('Origin',(234.134959479044,0.,16.5252378757708));
#1053=CARTESIAN_POINT('',(232.684959479044,3.,16.5252378757708));
#1054=CARTESIAN_POINT('Origin',(234.134959479044,3.,16.5252378757708));
#1055=CARTESIAN_POINT('',(232.684959479044,0.,16.5252378757708));
#1056=CARTESIAN_POINT('',(232.684959479044,0.,16.5252378757708));
#1057=CARTESIAN_POINT('Origin',(234.134959479044,0.,16.5252378757708));
#1058=CARTESIAN_POINT('Origin',(164.289417899856,0.,-3.13238174114625));
#1059=CARTESIAN_POINT('',(160.539417899856,3.,-3.13238174114625));
#1060=CARTESIAN_POINT('Origin',(164.289417899856,3.,-3.13238174114625));
#1061=CARTESIAN_POINT('',(160.539417899856,0.,-3.13238174114625));
#1062=CARTESIAN_POINT('',(160.539417899856,0.,-3.13238174114625));
#1063=CARTESIAN_POINT('Origin',(164.289417899856,0.,-3.13238174114625));
#1064=CARTESIAN_POINT('Origin',(222.878004975003,0.,3.24405916818101));
#1065=CARTESIAN_POINT('',(222.878004975003,0.,3.24405916818101));
#1066=CARTESIAN_POINT('',(208.878004975003,0.,3.24405916818101));
#1067=CARTESIAN_POINT('',(208.878004975003,0.,3.24405916818101));
#1068=CARTESIAN_POINT('',(208.878004975003,3.,3.24405916818101));
#1069=CARTESIAN_POINT('',(208.878004975003,0.,3.24405916818101));
#1070=CARTESIAN_POINT('',(222.878004975003,3.,3.24405916818101));
#1071=CARTESIAN_POINT('',(208.878004975003,3.,3.24405916818101));
#1072=CARTESIAN_POINT('',(222.878004975003,0.,3.24405916818101));
#1073=CARTESIAN_POINT('Origin',(222.878004975003,0.,-10.7559408318189));
#1074=CARTESIAN_POINT('',(222.878004975003,0.,-10.7559408318189));
#1075=CARTESIAN_POINT('',(222.878004975003,0.,3.24405916818101));
#1076=CARTESIAN_POINT('',(222.878004975003,3.,-10.7559408318189));
#1077=CARTESIAN_POINT('',(222.878004975003,3.,3.24405916818101));
#1078=CARTESIAN_POINT('',(222.878004975003,0.,-10.7559408318189));
#1079=CARTESIAN_POINT('Origin',(208.878004975003,0.,-10.7559408318189));
#1080=CARTESIAN_POINT('',(208.878004975003,0.,-10.7559408318189));
#1081=CARTESIAN_POINT('',(222.878004975003,0.,-10.7559408318189));
#1082=CARTESIAN_POINT('',(208.878004975003,3.,-10.7559408318189));
#1083=CARTESIAN_POINT('',(222.878004975003,3.,-10.7559408318189));
#1084=CARTESIAN_POINT('',(208.878004975003,0.,-10.7559408318189));
#1085=CARTESIAN_POINT('Origin',(208.878004975003,0.,3.24405916818101));
#1086=CARTESIAN_POINT('',(208.878004975003,0.,-10.7559408318189));
#1087=CARTESIAN_POINT('',(208.878004975003,3.,-10.7559408318189));
#1088=CARTESIAN_POINT('Origin',(203.828004975003,0.,3.24405916818101));
#1089=CARTESIAN_POINT('',(203.828004975003,0.,3.24405916818101));
#1090=CARTESIAN_POINT('',(189.828004975003,0.,3.24405916818101));
#1091=CARTESIAN_POINT('',(189.828004975003,0.,3.24405916818101));
#1092=CARTESIAN_POINT('',(189.828004975003,3.,3.24405916818101));
#1093=CARTESIAN_POINT('',(189.828004975003,0.,3.24405916818101));
#1094=CARTESIAN_POINT('',(203.828004975003,3.,3.24405916818101));
#1095=CARTESIAN_POINT('',(189.828004975003,3.,3.24405916818101));
#1096=CARTESIAN_POINT('',(203.828004975003,0.,3.24405916818101));
#1097=CARTESIAN_POINT('Origin',(203.828004975003,0.,-10.7559408318189));
#1098=CARTESIAN_POINT('',(203.828004975003,0.,-10.7559408318189));
#1099=CARTESIAN_POINT('',(203.828004975003,0.,3.24405916818101));
#1100=CARTESIAN_POINT('',(203.828004975003,3.,-10.7559408318189));
#1101=CARTESIAN_POINT('',(203.828004975003,3.,3.24405916818101));
#1102=CARTESIAN_POINT('',(203.828004975003,0.,-10.7559408318189));
#1103=CARTESIAN_POINT('Origin',(189.828004975003,0.,-10.7559408318189));
#1104=CARTESIAN_POINT('',(189.828004975003,0.,-10.7559408318189));
#1105=CARTESIAN_POINT('',(203.828004975003,0.,-10.7559408318189));
#1106=CARTESIAN_POINT('',(189.828004975003,3.,-10.7559408318189));
#1107=CARTESIAN_POINT('',(203.828004975003,3.,-10.7559408318189));
#1108=CARTESIAN_POINT('',(189.828004975003,0.,-10.7559408318189));
#1109=CARTESIAN_POINT('Origin',(189.828004975003,0.,3.24405916818101));
#1110=CARTESIAN_POINT('',(189.828004975003,0.,-10.7559408318189));
#1111=CARTESIAN_POINT('',(189.828004975003,3.,-10.7559408318189));
#1112=CARTESIAN_POINT('Origin',(129.134957914422,0.,16.5252378757708));
#1113=CARTESIAN_POINT('',(127.684957914422,3.,16.5252378757708));
#1114=CARTESIAN_POINT('Origin',(129.134957914422,3.,16.5252378757708));
#1115=CARTESIAN_POINT('',(127.684957914422,0.,16.5252378757708));
#1116=CARTESIAN_POINT('',(127.684957914422,0.,16.5252378757708));
#1117=CARTESIAN_POINT('Origin',(129.134957914422,0.,16.5252378757708));
#1118=CARTESIAN_POINT('Origin',(124.134958137939,0.,-28.4747623477467));
#1119=CARTESIAN_POINT('',(124.134958137939,0.,21.5252376522533));
#1120=CARTESIAN_POINT('',(124.134958137939,0.,-28.4747623477467));
#1121=CARTESIAN_POINT('',(124.134958137939,0.,21.5252376522533));
#1122=CARTESIAN_POINT('',(124.134958137939,3.,21.5252376522533));
#1123=CARTESIAN_POINT('',(124.134958137939,0.,21.5252376522533));
#1124=CARTESIAN_POINT('',(124.134958137939,3.,-28.4747623477467));
#1125=CARTESIAN_POINT('',(124.134958137939,3.,21.5252376522533));
#1126=CARTESIAN_POINT('',(124.134958137939,0.,-28.4747623477467));
#1127=CARTESIAN_POINT('Origin',(238.748446081173,0.,-28.4747623477467));
#1128=CARTESIAN_POINT('',(238.748446081173,0.,-28.4747623477467));
#1129=CARTESIAN_POINT('',(124.134958137939,0.,-28.4747623477467));
#1130=CARTESIAN_POINT('',(238.748446081173,3.,-28.4747623477467));
#1131=CARTESIAN_POINT('',(124.134958137939,3.,-28.4747623477467));
#1132=CARTESIAN_POINT('',(238.748446081173,0.,-28.4747623477467));
#1133=CARTESIAN_POINT('Origin',(238.748446081173,0.,21.5252376522533));
#1134=CARTESIAN_POINT('',(238.748446081173,0.,21.5252376522533));
#1135=CARTESIAN_POINT('',(238.748446081173,0.,-28.4747623477467));
#1136=CARTESIAN_POINT('',(238.748446081173,3.,21.5252376522533));
#1137=CARTESIAN_POINT('',(238.748446081173,3.,-28.4747623477467));
#1138=CARTESIAN_POINT('',(238.748446081173,0.,21.5252376522533));
#1139=CARTESIAN_POINT('Origin',(124.134958137939,0.,21.5252376522533));
#1140=CARTESIAN_POINT('',(238.748446081173,0.,21.5252376522533));
#1141=CARTESIAN_POINT('',(238.748446081173,3.,21.5252376522533));
#1142=CARTESIAN_POINT('Origin',(181.441702109556,3.,-3.47476234774666));
#1143=CARTESIAN_POINT('Origin',(181.441702109556,0.,-3.47476234774666));
#1144=UNCERTAINTY_MEASURE_WITH_UNIT(LENGTH_MEASURE(0.01),#1148,
'DISTANCE_ACCURACY_VALUE',
'Maximum model space distance between geometric entities at asserted c
onnectivities');
#1145=UNCERTAINTY_MEASURE_WITH_UNIT(LENGTH_MEASURE(0.01),#1148,
'DISTANCE_ACCURACY_VALUE',
'Maximum model space distance between geometric entities at asserted c
onnectivities');
#1146=(
GEOMETRIC_REPRESENTATION_CONTEXT(3)
GLOBAL_UNCERTAINTY_ASSIGNED_CONTEXT((#1144))
GLOBAL_UNIT_ASSIGNED_CONTEXT((#1148,#1150,#1151))
REPRESENTATION_CONTEXT('','3D')
);
#1147=(
GEOMETRIC_REPRESENTATION_CONTEXT(3)
GLOBAL_UNCERTAINTY_ASSIGNED_CONTEXT((#1145))
GLOBAL_UNIT_ASSIGNED_CONTEXT((#1148,#1150,#1151))
REPRESENTATION_CONTEXT('','3D')
);
#1148=(
LENGTH_UNIT()
NAMED_UNIT(*)
SI_UNIT(.MILLI.,.METRE.)
);
#1149=(
LENGTH_UNIT()
NAMED_UNIT(*)
SI_UNIT($,.METRE.)
);
#1150=(
NAMED_UNIT(*)
PLANE_ANGLE_UNIT()
SI_UNIT($,.RADIAN.)
);
#1151=(
NAMED_UNIT(*)
SI_UNIT($,.STERADIAN.)
SOLID_ANGLE_UNIT()
);
#1152=SHAPE_DEFINITION_REPRESENTATION(#1153,#1154);
#1153=PRODUCT_DEFINITION_SHAPE('',$,#1156);
#1154=SHAPE_REPRESENTATION('',(#724),#1146);
#1155=PRODUCT_DEFINITION_CONTEXT('part definition',#1160,'design');
#1156=PRODUCT_DEFINITION('2026-03-31-14-26-59-995',
'Hippogriff''s Hack Pad',#1157,#1155);
#1157=PRODUCT_DEFINITION_FORMATION('',$,#1162);
#1158=PRODUCT_RELATED_PRODUCT_CATEGORY('Hippogriff''s Hack Pad',
'Hippogriff''s Hack Pad',(#1162));
#1159=APPLICATION_PROTOCOL_DEFINITION('international standard',
'automotive_design',2009,#1160);
#1160=APPLICATION_CONTEXT(
'Core Data for Automotive Mechanical Design Process');
#1161=PRODUCT_CONTEXT('part definition',#1160,'mechanical');
#1162=PRODUCT('2026-03-31-14-26-59-995','Hippogriff''s Hack Pad',$,(#1161));
#1163=PRESENTATION_STYLE_ASSIGNMENT((#1164));
#1164=SURFACE_STYLE_USAGE(.BOTH.,#1165);
#1165=SURFACE_SIDE_STYLE('',(#1166));
#1166=SURFACE_STYLE_FILL_AREA(#1167);
#1167=FILL_AREA_STYLE('Steel - Satin',(#1168));
#1168=FILL_AREA_STYLE_COLOUR('Steel - Satin',#1169);
#1169=COLOUR_RGB('Steel - Satin',0.627450980392157,0.627450980392157,0.627450980392157);
ENDSEC;
END-ISO-10303-21;
